<?xml version="1.0" encoding="utf-8" standalone="no"?>
<!DOCTYPE svg PUBLIC "-//W3C//DTD SVG 1.1//EN"
  "http://www.w3.org/Graphics/SVG/1.1/DTD/svg11.dtd">
<svg xmlns:xlink="http://www.w3.org/1999/xlink" width="720pt" height="720pt" viewBox="0 0 720 720" xmlns="http://www.w3.org/2000/svg" version="1.1">
 <metadata>
  <rdf:RDF xmlns:dc="http://purl.org/dc/elements/1.1/" xmlns:cc="http://creativecommons.org/ns#" xmlns:rdf="http://www.w3.org/1999/02/22-rdf-syntax-ns#">
   <cc:Work>
    <dc:type rdf:resource="http://purl.org/dc/dcmitype/StillImage"/>
    <dc:date>2023-05-02T23:18:15.387673</dc:date>
    <dc:format>image/svg+xml</dc:format>
    <dc:creator>
     <cc:Agent>
      <dc:title>Matplotlib v3.7.1, https://matplotlib.org/</dc:title>
     </cc:Agent>
    </dc:creator>
   </cc:Work>
  </rdf:RDF>
 </metadata>
 <defs>
  <style type="text/css">*{stroke-linejoin: round; stroke-linecap: butt}</style>
 </defs>
 <g id="figure_1">
  <g id="patch_1">
   <path d="M 0 720 
L 720 720 
L 720 0 
L 0 0 
z
" style="fill: #ffffff"/>
  </g>
  <g id="axes_1">
   <g id="patch_2">
    <path d="M 90 640.8 
L 648 640.8 
L 648 86.4 
L 90 86.4 
z
" style="fill: #ffffff"/>
   </g>
   <g id="PolyCollection_1">
    <defs>
     <path id="m580f33ee74" d="M 90 -1.389474 
L 90 -1.389474 
L 90.558559 -2.476916 
L 91.117117 -3.564358 
L 91.675676 -4.6518 
L 92.234234 -5.739242 
L 92.792793 -6.826684 
L 93.351351 -7.914126 
L 93.90991 -9.001568 
L 94.468468 -10.08901 
L 95.027027 -11.176453 
L 95.585586 -12.263895 
L 96.144144 -13.351337 
L 96.702703 -14.438779 
L 97.261261 -15.526221 
L 97.81982 -16.613663 
L 98.378378 -17.701105 
L 98.936937 -18.788547 
L 99.495495 -19.875989 
L 100.054054 -20.963431 
L 100.612613 -22.050874 
L 101.171171 -23.138316 
L 101.72973 -24.225758 
L 102.288288 -25.3132 
L 102.846847 -26.400642 
L 103.405405 -27.488084 
L 103.963964 -28.575526 
L 104.522523 -29.662968 
L 105.081081 -30.75041 
L 105.63964 -31.837852 
L 106.198198 -32.925295 
L 106.756757 -34.012737 
L 107.315315 -35.100179 
L 107.873874 -36.187621 
L 108.432432 -37.275063 
L 108.990991 -38.362505 
L 109.54955 -39.449947 
L 110.108108 -40.537389 
L 110.666667 -41.624831 
L 111.225225 -42.712273 
L 111.783784 -43.799716 
L 112.342342 -44.887158 
L 112.900901 -45.9746 
L 113.459459 -47.062042 
L 114.018018 -48.149484 
L 114.576577 -49.236926 
L 115.135135 -50.324368 
L 115.693694 -51.41181 
L 116.252252 -52.499252 
L 116.810811 -53.586694 
L 117.369369 -54.674136 
L 117.927928 -55.761579 
L 118.486486 -56.849021 
L 119.045045 -57.936463 
L 119.603604 -59.023905 
L 120.162162 -60.111347 
L 120.720721 -61.198789 
L 121.279279 -62.286231 
L 121.837838 -63.373673 
L 122.396396 -64.461115 
L 122.954955 -65.548557 
L 123.513514 -66.636 
L 124.072072 -67.723442 
L 124.630631 -68.810884 
L 125.189189 -69.898326 
L 125.747748 -70.985768 
L 126.306306 -72.07321 
L 126.864865 -73.160652 
L 127.423423 -74.248094 
L 127.981982 -75.335536 
L 128.540541 -76.422978 
L 129.099099 -77.510421 
L 129.657658 -78.597863 
L 130.216216 -79.685305 
L 130.774775 -80.772747 
L 131.333333 -81.860189 
L 131.891892 -82.947631 
L 132.45045 -84.035073 
L 133.009009 -85.122515 
L 133.567568 -86.209957 
L 134.126126 -87.297399 
L 134.684685 -88.384842 
L 135.243243 -89.472284 
L 135.801802 -90.559726 
L 136.36036 -91.647168 
L 136.918919 -92.73461 
L 137.477477 -93.822052 
L 138.036036 -94.909494 
L 138.594595 -95.996936 
L 139.153153 -97.084378 
L 139.711712 -98.17182 
L 140.27027 -99.259263 
L 140.828829 -100.346705 
L 141.387387 -101.434147 
L 141.945946 -102.521589 
L 142.504505 -103.609031 
L 143.063063 -104.696473 
L 143.621622 -105.783915 
L 144.18018 -106.871357 
L 144.738739 -107.958799 
L 145.297297 -109.046241 
L 145.855856 -110.133683 
L 146.414414 -111.221126 
L 146.972973 -112.308568 
L 147.531532 -113.39601 
L 148.09009 -114.483452 
L 148.648649 -115.570894 
L 149.207207 -116.658336 
L 149.765766 -117.745778 
L 150.324324 -118.83322 
L 150.882883 -119.920662 
L 151.441441 -121.008104 
L 152 -122.095547 
L 152.558559 -123.182989 
L 153.117117 -124.270431 
L 153.675676 -125.357873 
L 154.234234 -126.445315 
L 154.792793 -127.532757 
L 155.351351 -128.620199 
L 155.90991 -129.707641 
L 156.468468 -130.795083 
L 157.027027 -131.882525 
L 157.585586 -132.969968 
L 158.144144 -134.05741 
L 158.702703 -135.144852 
L 159.261261 -136.232294 
L 159.81982 -137.319736 
L 160.378378 -138.407178 
L 160.936937 -139.49462 
L 161.495495 -140.582062 
L 162.054054 -141.669504 
L 162.612613 -142.756946 
L 163.171171 -143.844389 
L 163.72973 -144.931831 
L 164.288288 -146.019273 
L 164.846847 -147.106715 
L 165.405405 -148.194157 
L 165.963964 -149.281599 
L 166.522523 -150.369041 
L 167.081081 -151.456483 
L 167.63964 -152.543925 
L 168.198198 -153.631367 
L 168.756757 -154.718809 
L 169.315315 -155.806252 
L 169.873874 -156.893694 
L 170.432432 -157.981136 
L 170.990991 -159.068578 
L 171.54955 -160.15602 
L 172.108108 -161.243462 
L 172.666667 -162.330904 
L 173.225225 -163.418346 
L 173.783784 -164.505788 
L 174.342342 -165.59323 
L 174.900901 -166.680673 
L 175.459459 -167.768115 
L 176.018018 -168.855557 
L 176.576577 -169.942999 
L 177.135135 -171.030441 
L 177.693694 -172.117883 
L 178.252252 -173.205325 
L 178.810811 -174.292767 
L 179.369369 -175.380209 
L 179.927928 -176.467651 
L 180.486486 -177.555094 
L 181.045045 -178.642536 
L 181.603604 -179.729978 
L 182.162162 -180.81742 
L 182.720721 -181.904862 
L 183.279279 -182.992304 
L 183.837838 -184.079746 
L 184.396396 -185.167188 
L 184.954955 -186.25463 
L 185.513514 -187.342072 
L 186.072072 -188.429515 
L 186.630631 -189.516957 
L 187.189189 -190.604399 
L 187.747748 -191.691841 
L 188.306306 -192.779283 
L 188.864865 -193.866725 
L 189.423423 -194.954167 
L 189.981982 -196.041609 
L 190.540541 -197.129051 
L 191.099099 -198.216493 
L 191.657658 -199.303936 
L 192.216216 -200.391378 
L 192.774775 -201.47882 
L 193.333333 -202.566262 
L 193.891892 -203.653704 
L 194.45045 -204.741146 
L 195.009009 -205.828588 
L 195.567568 -206.91603 
L 196.126126 -208.003472 
L 196.684685 -209.090914 
L 197.243243 -210.178356 
L 197.801802 -211.265799 
L 198.36036 -212.353241 
L 198.918919 -213.440683 
L 199.477477 -214.528125 
L 200.036036 -215.615567 
L 200.594595 -216.703009 
L 201.153153 -217.790451 
L 201.711712 -218.877893 
L 202.27027 -219.965335 
L 202.828829 -221.052777 
L 203.387387 -222.14022 
L 203.945946 -223.227662 
L 204.504505 -224.315104 
L 205.063063 -225.402546 
L 205.621622 -226.489988 
L 206.18018 -227.57743 
L 206.738739 -228.664872 
L 207.297297 -229.752314 
L 207.855856 -230.839756 
L 208.414414 -231.927198 
L 208.972973 -233.014641 
L 209.531532 -234.102083 
L 210.09009 -235.189525 
L 210.648649 -236.276967 
L 211.207207 -237.364409 
L 211.765766 -238.451851 
L 212.324324 -239.539293 
L 212.882883 -240.626735 
L 213.441441 -241.714177 
L 214 -242.801619 
L 214.558559 -243.889062 
L 215.117117 -244.976504 
L 215.675676 -246.063946 
L 216.234234 -247.151388 
L 216.792793 -248.23883 
L 217.351351 -249.326272 
L 217.90991 -250.413714 
L 218.468468 -251.501156 
L 219.027027 -252.588598 
L 219.585586 -253.67604 
L 220.144144 -254.763483 
L 220.702703 -255.850925 
L 221.261261 -256.938367 
L 221.81982 -258.025809 
L 222.378378 -259.113251 
L 222.936937 -260.200693 
L 223.495495 -261.288135 
L 224.054054 -262.375577 
L 224.612613 -263.463019 
L 225.171171 -264.550461 
L 225.72973 -265.637903 
L 226.288288 -266.725346 
L 226.846847 -267.812788 
L 227.405405 -268.90023 
L 227.963964 -269.987672 
L 228.522523 -271.075114 
L 229.081081 -272.162556 
L 229.63964 -273.249998 
L 230.198198 -274.33744 
L 230.756757 -275.424882 
L 231.315315 -276.512324 
L 231.873874 -277.599767 
L 232.432432 -278.687209 
L 232.990991 -279.774651 
L 233.54955 -280.862093 
L 234.108108 -281.949535 
L 234.666667 -283.036977 
L 235.225225 -284.124419 
L 235.783784 -285.211861 
L 236.342342 -286.299303 
L 236.900901 -287.386745 
L 237.459459 -288.474188 
L 238.018018 -289.56163 
L 238.576577 -290.649072 
L 239.135135 -291.736514 
L 239.693694 -292.823956 
L 240.252252 -293.911398 
L 240.810811 -294.99884 
L 241.369369 -296.086282 
L 241.927928 -297.173724 
L 242.486486 -298.261166 
L 243.045045 -299.348609 
L 243.603604 -300.436051 
L 244.162162 -301.523493 
L 244.720721 -302.610935 
L 245.279279 -303.698377 
L 245.837838 -304.785819 
L 246.396396 -305.873261 
L 246.954955 -306.960703 
L 247.513514 -308.048145 
L 248.072072 -309.135587 
L 248.630631 -310.22303 
L 249.189189 -311.310472 
L 249.747748 -312.397914 
L 250.306306 -313.485356 
L 250.864865 -314.572798 
L 251.423423 -315.66024 
L 251.981982 -316.747682 
L 252.540541 -317.835124 
L 253.099099 -318.922566 
L 253.657658 -320.010008 
L 254.216216 -321.09745 
L 254.774775 -322.184893 
L 255.333333 -323.272335 
L 255.891892 -324.359777 
L 256.45045 -325.447219 
L 257.009009 -326.534661 
L 257.567568 -327.622103 
L 258.126126 -328.709545 
L 258.684685 -329.796987 
L 259.243243 -330.884429 
L 259.801802 -331.971871 
L 260.36036 -333.059314 
L 260.918919 -334.146756 
L 261.477477 -335.234198 
L 262.036036 -336.32164 
L 262.594595 -337.409082 
L 263.153153 -338.496524 
L 263.711712 -339.583966 
L 264.27027 -340.671408 
L 264.828829 -341.75885 
L 265.387387 -342.846292 
L 265.945946 -343.933735 
L 266.504505 -345.021177 
L 267.063063 -346.108619 
L 267.621622 -347.196061 
L 268.18018 -348.283503 
L 268.738739 -349.370945 
L 269.297297 -350.458387 
L 269.855856 -351.545829 
L 270.414414 -352.633271 
L 270.972973 -353.720713 
L 271.531532 -354.808156 
L 272.09009 -355.895598 
L 272.648649 -356.98304 
L 273.207207 -358.070482 
L 273.765766 -359.157924 
L 274.324324 -360.245366 
L 274.882883 -361.332808 
L 275.441441 -362.42025 
L 276 -363.507692 
L 276.558559 -364.595134 
L 277.117117 -365.682577 
L 277.675676 -366.770019 
L 278.234234 -367.857461 
L 278.792793 -368.944903 
L 279.351351 -370.032345 
L 279.90991 -371.119787 
L 280.468468 -372.207229 
L 281.027027 -373.294671 
L 281.585586 -374.382113 
L 282.144144 -375.469555 
L 282.702703 -376.556997 
L 283.261261 -377.64444 
L 283.81982 -378.731882 
L 284.378378 -379.819324 
L 284.936937 -380.906766 
L 285.495495 -381.994208 
L 286.054054 -383.08165 
L 286.612613 -384.169092 
L 287.171171 -385.256534 
L 287.72973 -386.343976 
L 288.288288 -387.431418 
L 288.846847 -388.518861 
L 289.405405 -389.606303 
L 289.963964 -390.693745 
L 290.522523 -391.781187 
L 291.081081 -392.868629 
L 291.63964 -393.956071 
L 292.198198 -395.043513 
L 292.756757 -396.130955 
L 293.315315 -397.218397 
L 293.873874 -398.305839 
L 294.432432 -399.393282 
L 294.990991 -400.480724 
L 295.54955 -401.568166 
L 296.108108 -402.655608 
L 296.666667 -403.74305 
L 297.225225 -404.830492 
L 297.783784 -405.917934 
L 298.342342 -407.005376 
L 298.900901 -408.092818 
L 299.459459 -409.18026 
L 300.018018 -410.267703 
L 300.576577 -411.355145 
L 301.135135 -412.442587 
L 301.693694 -413.530029 
L 302.252252 -414.617471 
L 302.810811 -415.704913 
L 303.369369 -416.792355 
L 303.927928 -417.879797 
L 304.486486 -418.967239 
L 305.045045 -420.054681 
L 305.603604 -421.142124 
L 306.162162 -422.229566 
L 306.720721 -423.317008 
L 307.279279 -424.40445 
L 307.837838 -425.491892 
L 308.396396 -426.579334 
L 308.954955 -427.666776 
L 309.513514 -428.754218 
L 310.072072 -429.84166 
L 310.630631 -430.929102 
L 311.189189 -432.016544 
L 311.747748 -433.103987 
L 312.306306 -434.191429 
L 312.864865 -435.278871 
L 313.423423 -436.366313 
L 313.981982 -437.453755 
L 314.540541 -438.541197 
L 315.099099 -439.628639 
L 315.657658 -440.716081 
L 316.216216 -441.803523 
L 316.774775 -442.890965 
L 317.333333 -443.978408 
L 317.891892 -445.06585 
L 318.45045 -446.153292 
L 319.009009 -447.240734 
L 319.567568 -448.328176 
L 320.126126 -449.415618 
L 320.684685 -450.50306 
L 321.243243 -451.590502 
L 321.801802 -452.677944 
L 322.36036 -453.765386 
L 322.918919 -454.852829 
L 323.477477 -455.940271 
L 324.036036 -457.027713 
L 324.594595 -458.115155 
L 325.153153 -459.202597 
L 325.711712 -460.290039 
L 326.27027 -461.377481 
L 326.828829 -462.464923 
L 327.387387 -463.552365 
L 327.945946 -464.639807 
L 328.504505 -465.72725 
L 329.063063 -466.814692 
L 329.621622 -467.902134 
L 330.18018 -468.989576 
L 330.738739 -470.077018 
L 331.297297 -471.16446 
L 331.855856 -472.251902 
L 332.414414 -473.339344 
L 332.972973 -474.426786 
L 333.531532 -475.514228 
L 334.09009 -476.60167 
L 334.648649 -477.689113 
L 335.207207 -478.776555 
L 335.765766 -479.863997 
L 336.324324 -480.951439 
L 336.882883 -482.038881 
L 337.441441 -483.126323 
L 338 -484.213765 
L 338.558559 -485.301207 
L 339.117117 -486.388649 
L 339.675676 -487.476091 
L 340.234234 -488.563534 
L 340.792793 -489.650976 
L 341.351351 -490.738418 
L 341.90991 -491.82586 
L 342.468468 -492.913302 
L 343.027027 -494.000744 
L 343.585586 -495.088186 
L 344.144144 -496.175628 
L 344.702703 -497.26307 
L 345.261261 -498.350512 
L 345.81982 -499.437955 
L 346.378378 -500.525397 
L 346.936937 -501.612839 
L 347.495495 -502.700281 
L 348.054054 -503.787723 
L 348.612613 -504.875165 
L 349.171171 -505.962607 
L 349.72973 -507.050049 
L 350.288288 -508.137491 
L 350.846847 -509.224933 
L 351.405405 -510.312376 
L 351.963964 -511.399818 
L 352.522523 -512.48726 
L 353.081081 -513.574702 
L 353.63964 -514.662144 
L 354.198198 -515.749586 
L 354.756757 -516.837028 
L 355.315315 -517.92447 
L 355.873874 -519.011912 
L 356.432432 -520.099354 
L 356.990991 -521.186797 
L 357.54955 -522.274239 
L 358.108108 -523.361681 
L 358.666667 -524.449123 
L 359.225225 -525.536565 
L 359.783784 -526.624007 
L 360.342342 -527.711449 
L 360.900901 -528.798891 
L 361.459459 -529.886333 
L 362.018018 -530.973775 
L 362.576577 -532.061217 
L 363.135135 -533.14866 
L 363.693694 -534.236102 
L 364.252252 -535.323544 
L 364.810811 -536.410986 
L 365.369369 -537.498428 
L 365.927928 -538.58587 
L 366.486486 -539.673312 
L 367.045045 -540.760754 
L 367.603604 -541.848196 
L 368.162162 -542.935638 
L 368.720721 -542.712867 
L 369.279279 -542.271749 
L 369.837838 -541.830631 
L 370.396396 -541.389513 
L 370.954955 -540.948395 
L 371.513514 -540.507277 
L 372.072072 -540.066158 
L 372.630631 -539.62504 
L 373.189189 -539.183922 
L 373.747748 -538.742804 
L 374.306306 -538.301686 
L 374.864865 -537.860568 
L 375.423423 -537.41945 
L 375.981982 -536.978332 
L 376.540541 -536.537214 
L 377.099099 -536.096096 
L 377.657658 -535.654978 
L 378.216216 -535.21386 
L 378.774775 -534.772742 
L 379.333333 -534.331624 
L 379.891892 -533.890506 
L 380.45045 -533.449388 
L 381.009009 -533.00827 
L 381.567568 -532.567152 
L 382.126126 -532.126034 
L 382.684685 -531.684916 
L 383.243243 -531.243798 
L 383.801802 -530.80268 
L 384.36036 -530.361562 
L 384.918919 -529.920444 
L 385.477477 -529.479325 
L 386.036036 -529.038207 
L 386.594595 -528.597089 
L 387.153153 -528.155971 
L 387.711712 -527.714853 
L 388.27027 -527.273735 
L 388.828829 -526.832617 
L 389.387387 -526.391499 
L 389.945946 -525.950381 
L 390.504505 -525.509263 
L 391.063063 -525.068145 
L 391.621622 -524.627027 
L 392.18018 -524.185909 
L 392.738739 -523.744791 
L 393.297297 -523.303673 
L 393.855856 -522.862555 
L 394.414414 -522.421437 
L 394.972973 -521.980319 
L 395.531532 -521.539201 
L 396.09009 -521.098083 
L 396.648649 -520.656965 
L 397.207207 -520.215847 
L 397.765766 -519.774729 
L 398.324324 -519.333611 
L 398.882883 -518.892492 
L 399.441441 -518.451374 
L 400 -518.010256 
L 400.558559 -517.569138 
L 401.117117 -517.12802 
L 401.675676 -516.686902 
L 402.234234 -516.245784 
L 402.792793 -515.804666 
L 403.351351 -515.363548 
L 403.90991 -514.92243 
L 404.468468 -514.481312 
L 405.027027 -514.040194 
L 405.585586 -513.599076 
L 406.144144 -513.157958 
L 406.702703 -512.71684 
L 407.261261 -512.275722 
L 407.81982 -511.834604 
L 408.378378 -511.393486 
L 408.936937 -510.952368 
L 409.495495 -510.51125 
L 410.054054 -510.070132 
L 410.612613 -509.629014 
L 411.171171 -509.187896 
L 411.72973 -508.746778 
L 412.288288 -508.30566 
L 412.846847 -507.864541 
L 413.405405 -507.423423 
L 413.963964 -506.982305 
L 414.522523 -506.541187 
L 415.081081 -506.100069 
L 415.63964 -505.658951 
L 416.198198 -505.217833 
L 416.756757 -504.776715 
L 417.315315 -504.335597 
L 417.873874 -503.894479 
L 418.432432 -503.453361 
L 418.990991 -503.012243 
L 419.54955 -502.571125 
L 420.108108 -502.130007 
L 420.666667 -501.688889 
L 421.225225 -501.247771 
L 421.783784 -500.806653 
L 422.342342 -500.365535 
L 422.900901 -499.924417 
L 423.459459 -499.483299 
L 424.018018 -499.042181 
L 424.576577 -498.601063 
L 425.135135 -498.159945 
L 425.693694 -497.718827 
L 426.252252 -497.277708 
L 426.810811 -496.83659 
L 427.369369 -496.395472 
L 427.927928 -495.954354 
L 428.486486 -495.513236 
L 429.045045 -495.072118 
L 429.603604 -494.631 
L 430.162162 -494.189882 
L 430.720721 -493.748764 
L 431.279279 -493.307646 
L 431.837838 -492.866528 
L 432.396396 -492.42541 
L 432.954955 -491.984292 
L 433.513514 -491.543174 
L 434.072072 -491.102056 
L 434.630631 -490.660938 
L 435.189189 -490.21982 
L 435.747748 -489.778702 
L 436.306306 -489.337584 
L 436.864865 -488.896466 
L 437.423423 -488.455348 
L 437.981982 -488.01423 
L 438.540541 -487.573112 
L 439.099099 -487.131994 
L 439.657658 -486.690875 
L 440.216216 -486.249757 
L 440.774775 -485.808639 
L 441.333333 -485.367521 
L 441.891892 -484.926403 
L 442.45045 -484.485285 
L 443.009009 -484.044167 
L 443.567568 -483.603049 
L 444.126126 -483.161931 
L 444.684685 -482.720813 
L 445.243243 -482.279695 
L 445.801802 -481.838577 
L 446.36036 -481.397459 
L 446.918919 -480.956341 
L 447.477477 -480.515223 
L 448.036036 -480.074105 
L 448.594595 -479.632987 
L 449.153153 -479.191869 
L 449.711712 -478.750751 
L 450.27027 -478.309633 
L 450.828829 -477.868515 
L 451.387387 -477.427397 
L 451.945946 -476.986279 
L 452.504505 -476.545161 
L 453.063063 -476.104043 
L 453.621622 -475.662924 
L 454.18018 -475.221806 
L 454.738739 -474.780688 
L 455.297297 -474.33957 
L 455.855856 -473.898452 
L 456.414414 -473.457334 
L 456.972973 -473.016216 
L 457.531532 -472.575098 
L 458.09009 -472.13398 
L 458.648649 -471.692862 
L 459.207207 -471.251744 
L 459.765766 -470.810626 
L 460.324324 -470.369508 
L 460.882883 -469.92839 
L 461.441441 -469.487272 
L 462 -469.046154 
L 462.558559 -468.605036 
L 463.117117 -468.163918 
L 463.675676 -467.7228 
L 464.234234 -467.281682 
L 464.792793 -466.840564 
L 465.351351 -466.399446 
L 465.90991 -465.958328 
L 466.468468 -465.51721 
L 467.027027 -465.076091 
L 467.585586 -464.634973 
L 468.144144 -464.193855 
L 468.702703 -463.752737 
L 469.261261 -463.311619 
L 469.81982 -462.870501 
L 470.378378 -462.429383 
L 470.936937 -461.988265 
L 471.495495 -461.547147 
L 472.054054 -461.106029 
L 472.612613 -460.664911 
L 473.171171 -460.223793 
L 473.72973 -459.782675 
L 474.288288 -459.341557 
L 474.846847 -458.900439 
L 475.405405 -458.459321 
L 475.963964 -458.018203 
L 476.522523 -457.577085 
L 477.081081 -457.135967 
L 477.63964 -456.694849 
L 478.198198 -456.253731 
L 478.756757 -455.812613 
L 479.315315 -455.371495 
L 479.873874 -454.930377 
L 480.432432 -454.489258 
L 480.990991 -454.04814 
L 481.54955 -453.607022 
L 482.108108 -453.165904 
L 482.666667 -452.724786 
L 483.225225 -452.283668 
L 483.783784 -451.84255 
L 484.342342 -451.401432 
L 484.900901 -450.960314 
L 485.459459 -450.519196 
L 486.018018 -450.078078 
L 486.576577 -449.63696 
L 487.135135 -449.195842 
L 487.693694 -448.754724 
L 488.252252 -448.313606 
L 488.810811 -447.872488 
L 489.369369 -447.43137 
L 489.927928 -446.990252 
L 490.486486 -446.549134 
L 491.045045 -446.108016 
L 491.603604 -445.666898 
L 492.162162 -445.22578 
L 492.720721 -444.784662 
L 493.279279 -444.343544 
L 493.837838 -443.902426 
L 494.396396 -443.461307 
L 494.954955 -443.020189 
L 495.513514 -442.579071 
L 496.072072 -442.137953 
L 496.630631 -441.696835 
L 497.189189 -441.255717 
L 497.747748 -440.814599 
L 498.306306 -440.373481 
L 498.864865 -439.932363 
L 499.423423 -439.491245 
L 499.981982 -439.050127 
L 500.540541 -438.609009 
L 501.099099 -438.167891 
L 501.657658 -437.726773 
L 502.216216 -437.285655 
L 502.774775 -436.844537 
L 503.333333 -436.403419 
L 503.891892 -435.962301 
L 504.45045 -435.521183 
L 505.009009 -435.080065 
L 505.567568 -434.638947 
L 506.126126 -434.197829 
L 506.684685 -433.756711 
L 507.243243 -433.315593 
L 507.801802 -432.874474 
L 508.36036 -432.433356 
L 508.918919 -431.992238 
L 509.477477 -431.55112 
L 510.036036 -431.110002 
L 510.594595 -430.668884 
L 511.153153 -430.227766 
L 511.711712 -429.786648 
L 512.27027 -429.34553 
L 512.828829 -428.904412 
L 513.387387 -428.463294 
L 513.945946 -428.022176 
L 514.504505 -427.581058 
L 515.063063 -427.13994 
L 515.621622 -426.698822 
L 516.18018 -426.257704 
L 516.738739 -425.816586 
L 517.297297 -425.375468 
L 517.855856 -424.93435 
L 518.414414 -424.493232 
L 518.972973 -424.052114 
L 519.531532 -423.610996 
L 520.09009 -423.169878 
L 520.648649 -422.72876 
L 521.207207 -422.287641 
L 521.765766 -421.846523 
L 522.324324 -421.405405 
L 522.882883 -420.964287 
L 523.441441 -420.523169 
L 524 -420.082051 
L 524.558559 -419.640933 
L 525.117117 -419.199815 
L 525.675676 -418.758697 
L 526.234234 -418.317579 
L 526.792793 -417.876461 
L 527.351351 -417.435343 
L 527.90991 -416.994225 
L 528.468468 -416.553107 
L 529.027027 -416.111989 
L 529.585586 -415.670871 
L 530.144144 -415.229753 
L 530.702703 -414.788635 
L 531.261261 -414.347517 
L 531.81982 -413.906399 
L 532.378378 -413.465281 
L 532.936937 -413.024163 
L 533.495495 -412.583045 
L 534.054054 -412.141927 
L 534.612613 -411.700809 
L 535.171171 -411.25969 
L 535.72973 -410.818572 
L 536.288288 -410.377454 
L 536.846847 -409.936336 
L 537.405405 -409.495218 
L 537.963964 -409.0541 
L 538.522523 -408.612982 
L 539.081081 -408.171864 
L 539.63964 -407.730746 
L 540.198198 -407.289628 
L 540.756757 -406.84851 
L 541.315315 -406.407392 
L 541.873874 -405.966274 
L 542.432432 -405.525156 
L 542.990991 -405.084038 
L 543.54955 -404.64292 
L 544.108108 -404.201802 
L 544.666667 -403.760684 
L 545.225225 -403.319566 
L 545.783784 -402.878448 
L 546.342342 -402.43733 
L 546.900901 -401.996212 
L 547.459459 -401.555094 
L 548.018018 -401.113976 
L 548.576577 -400.672857 
L 549.135135 -400.231739 
L 549.693694 -399.790621 
L 550.252252 -399.349503 
L 550.810811 -398.908385 
L 551.369369 -398.467267 
L 551.927928 -398.026149 
L 552.486486 -397.585031 
L 553.045045 -397.143913 
L 553.603604 -396.702795 
L 554.162162 -396.261677 
L 554.720721 -395.820559 
L 555.279279 -395.379441 
L 555.837838 -394.938323 
L 556.396396 -394.497205 
L 556.954955 -394.056087 
L 557.513514 -393.614969 
L 558.072072 -393.173851 
L 558.630631 -392.732733 
L 559.189189 -392.291615 
L 559.747748 -391.850497 
L 560.306306 -391.409379 
L 560.864865 -390.968261 
L 561.423423 -390.527143 
L 561.981982 -390.086024 
L 562.540541 -389.644906 
L 563.099099 -389.203788 
L 563.657658 -388.76267 
L 564.216216 -388.321552 
L 564.774775 -387.880434 
L 565.333333 -387.439316 
L 565.891892 -386.998198 
L 566.45045 -386.55708 
L 567.009009 -386.115962 
L 567.567568 -385.674844 
L 568.126126 -385.233726 
L 568.684685 -384.792608 
L 569.243243 -384.35149 
L 569.801802 -383.910372 
L 570.36036 -383.469254 
L 570.918919 -383.028136 
L 571.477477 -382.587018 
L 572.036036 -382.1459 
L 572.594595 -381.704782 
L 573.153153 -381.263664 
L 573.711712 -380.822546 
L 574.27027 -380.381428 
L 574.828829 -379.94031 
L 575.387387 -379.499191 
L 575.945946 -379.058073 
L 576.504505 -378.616955 
L 577.063063 -378.175837 
L 577.621622 -377.734719 
L 578.18018 -377.293601 
L 578.738739 -376.852483 
L 579.297297 -376.411365 
L 579.855856 -375.970247 
L 580.414414 -375.529129 
L 580.972973 -375.088011 
L 581.531532 -374.646893 
L 582.09009 -374.205775 
L 582.648649 -373.764657 
L 583.207207 -373.323539 
L 583.765766 -372.882421 
L 584.324324 -372.441303 
L 584.882883 -372.000185 
L 585.441441 -371.559067 
L 586 -371.117949 
L 586.558559 -370.676831 
L 587.117117 -370.235713 
L 587.675676 -369.794595 
L 588.234234 -369.353477 
L 588.792793 -368.912359 
L 589.351351 -368.47124 
L 589.90991 -368.030122 
L 590.468468 -367.589004 
L 591.027027 -367.147886 
L 591.585586 -366.706768 
L 592.144144 -366.26565 
L 592.702703 -365.824532 
L 593.261261 -365.383414 
L 593.81982 -364.942296 
L 594.378378 -364.501178 
L 594.936937 -364.06006 
L 595.495495 -363.618942 
L 596.054054 -363.177824 
L 596.612613 -362.736706 
L 597.171171 -362.295588 
L 597.72973 -361.85447 
L 598.288288 -361.413352 
L 598.846847 -360.972234 
L 599.405405 -360.531116 
L 599.963964 -360.089998 
L 600.522523 -359.64888 
L 601.081081 -359.207762 
L 601.63964 -358.766644 
L 602.198198 -358.325526 
L 602.756757 -357.884407 
L 603.315315 -357.443289 
L 603.873874 -357.002171 
L 604.432432 -356.561053 
L 604.990991 -356.119935 
L 605.54955 -355.678817 
L 606.108108 -355.237699 
L 606.666667 -354.796581 
L 607.225225 -354.355463 
L 607.783784 -353.914345 
L 608.342342 -353.473227 
L 608.900901 -353.032109 
L 609.459459 -352.590991 
L 610.018018 -352.149873 
L 610.576577 -351.708755 
L 611.135135 -351.267637 
L 611.693694 -350.826519 
L 612.252252 -350.385401 
L 612.810811 -349.944283 
L 613.369369 -349.503165 
L 613.927928 -349.062047 
L 614.486486 -348.620929 
L 615.045045 -348.179811 
L 615.603604 -347.738693 
L 616.162162 -347.297574 
L 616.720721 -346.856456 
L 617.279279 -346.415338 
L 617.837838 -345.97422 
L 618.396396 -345.533102 
L 618.954955 -345.091984 
L 619.513514 -344.650866 
L 620.072072 -344.209748 
L 620.630631 -343.76863 
L 621.189189 -343.327512 
L 621.747748 -342.886394 
L 622.306306 -342.445276 
L 622.864865 -342.004158 
L 623.423423 -341.56304 
L 623.981982 -341.121922 
L 624.540541 -340.680804 
L 625.099099 -340.239686 
L 625.657658 -339.798568 
L 626.216216 -339.35745 
L 626.774775 -338.916332 
L 627.333333 -338.475214 
L 627.891892 -338.034096 
L 628.45045 -337.592978 
L 629.009009 -337.15186 
L 629.567568 -336.710742 
L 630.126126 -336.269623 
L 630.684685 -335.828505 
L 631.243243 -335.387387 
L 631.801802 -334.946269 
L 632.36036 -334.505151 
L 632.918919 -334.064033 
L 633.477477 -333.622915 
L 634.036036 -333.181797 
L 634.594595 -332.740679 
L 635.153153 -332.299561 
L 635.711712 -331.858443 
L 636.27027 -331.417325 
L 636.828829 -330.976207 
L 637.387387 -330.535089 
L 637.945946 -330.093971 
L 638.504505 -329.652853 
L 639.063063 -329.211735 
L 639.621622 -328.770617 
L 640.18018 -328.329499 
L 640.738739 -327.888381 
L 641.297297 -327.447263 
L 641.855856 -327.006145 
L 642.414414 -326.565027 
L 642.972973 -326.123909 
L 643.531532 -325.68279 
L 644.09009 -325.241672 
L 644.648649 -324.800554 
L 645.207207 -324.359436 
L 645.765766 -323.918318 
L 646.324324 -323.4772 
L 646.882883 -323.036082 
L 647.441441 -322.594964 
L 648 -322.153846 
L 648 -322.153846 
L 648 -322.153846 
L 647.441441 -322.594964 
L 646.882883 -323.036082 
L 646.324324 -323.4772 
L 645.765766 -323.918318 
L 645.207207 -324.359436 
L 644.648649 -324.800554 
L 644.09009 -325.241672 
L 643.531532 -325.68279 
L 642.972973 -326.123909 
L 642.414414 -326.565027 
L 641.855856 -327.006145 
L 641.297297 -327.447263 
L 640.738739 -327.888381 
L 640.18018 -328.329499 
L 639.621622 -328.770617 
L 639.063063 -329.211735 
L 638.504505 -329.652853 
L 637.945946 -330.093971 
L 637.387387 -330.535089 
L 636.828829 -330.976207 
L 636.27027 -331.417325 
L 635.711712 -331.858443 
L 635.153153 -332.299561 
L 634.594595 -332.740679 
L 634.036036 -333.181797 
L 633.477477 -333.622915 
L 632.918919 -334.064033 
L 632.36036 -334.505151 
L 631.801802 -334.946269 
L 631.243243 -335.387387 
L 630.684685 -335.828505 
L 630.126126 -336.269623 
L 629.567568 -336.710742 
L 629.009009 -337.15186 
L 628.45045 -337.592978 
L 627.891892 -338.034096 
L 627.333333 -338.475214 
L 626.774775 -338.916332 
L 626.216216 -339.35745 
L 625.657658 -339.798568 
L 625.099099 -340.239686 
L 624.540541 -340.680804 
L 623.981982 -341.121922 
L 623.423423 -341.56304 
L 622.864865 -342.004158 
L 622.306306 -342.445276 
L 621.747748 -342.886394 
L 621.189189 -343.327512 
L 620.630631 -343.76863 
L 620.072072 -344.209748 
L 619.513514 -344.650866 
L 618.954955 -345.091984 
L 618.396396 -345.533102 
L 617.837838 -345.97422 
L 617.279279 -346.415338 
L 616.720721 -346.856456 
L 616.162162 -347.297574 
L 615.603604 -347.738693 
L 615.045045 -348.179811 
L 614.486486 -348.620929 
L 613.927928 -349.062047 
L 613.369369 -349.503165 
L 612.810811 -349.944283 
L 612.252252 -350.385401 
L 611.693694 -350.826519 
L 611.135135 -351.267637 
L 610.576577 -351.708755 
L 610.018018 -352.149873 
L 609.459459 -352.590991 
L 608.900901 -353.032109 
L 608.342342 -353.473227 
L 607.783784 -353.914345 
L 607.225225 -354.355463 
L 606.666667 -354.796581 
L 606.108108 -355.237699 
L 605.54955 -355.678817 
L 604.990991 -356.119935 
L 604.432432 -356.561053 
L 603.873874 -357.002171 
L 603.315315 -357.443289 
L 602.756757 -357.884407 
L 602.198198 -358.325526 
L 601.63964 -358.766644 
L 601.081081 -359.207762 
L 600.522523 -359.64888 
L 599.963964 -360.089998 
L 599.405405 -360.531116 
L 598.846847 -360.972234 
L 598.288288 -361.413352 
L 597.72973 -361.85447 
L 597.171171 -362.295588 
L 596.612613 -362.736706 
L 596.054054 -363.177824 
L 595.495495 -363.618942 
L 594.936937 -364.06006 
L 594.378378 -364.501178 
L 593.81982 -364.942296 
L 593.261261 -365.383414 
L 592.702703 -365.824532 
L 592.144144 -366.26565 
L 591.585586 -366.706768 
L 591.027027 -367.147886 
L 590.468468 -367.589004 
L 589.90991 -368.030122 
L 589.351351 -368.47124 
L 588.792793 -368.912359 
L 588.234234 -369.353477 
L 587.675676 -369.794595 
L 587.117117 -370.235713 
L 586.558559 -370.676831 
L 586 -371.117949 
L 585.441441 -371.559067 
L 584.882883 -372.000185 
L 584.324324 -372.441303 
L 583.765766 -372.882421 
L 583.207207 -373.323539 
L 582.648649 -373.764657 
L 582.09009 -374.205775 
L 581.531532 -374.646893 
L 580.972973 -375.088011 
L 580.414414 -375.529129 
L 579.855856 -375.970247 
L 579.297297 -376.411365 
L 578.738739 -376.852483 
L 578.18018 -377.293601 
L 577.621622 -377.734719 
L 577.063063 -378.175837 
L 576.504505 -378.616955 
L 575.945946 -379.058073 
L 575.387387 -379.499191 
L 574.828829 -379.94031 
L 574.27027 -380.381428 
L 573.711712 -380.822546 
L 573.153153 -381.263664 
L 572.594595 -381.704782 
L 572.036036 -382.1459 
L 571.477477 -382.587018 
L 570.918919 -383.028136 
L 570.36036 -383.469254 
L 569.801802 -383.910372 
L 569.243243 -384.35149 
L 568.684685 -384.792608 
L 568.126126 -385.233726 
L 567.567568 -385.674844 
L 567.009009 -386.115962 
L 566.45045 -386.55708 
L 565.891892 -386.998198 
L 565.333333 -387.439316 
L 564.774775 -387.880434 
L 564.216216 -388.321552 
L 563.657658 -388.76267 
L 563.099099 -389.203788 
L 562.540541 -389.644906 
L 561.981982 -390.086024 
L 561.423423 -390.527143 
L 560.864865 -390.968261 
L 560.306306 -391.409379 
L 559.747748 -391.850497 
L 559.189189 -392.291615 
L 558.630631 -392.732733 
L 558.072072 -393.173851 
L 557.513514 -393.614969 
L 556.954955 -394.056087 
L 556.396396 -394.497205 
L 555.837838 -394.938323 
L 555.279279 -395.379441 
L 554.720721 -395.820559 
L 554.162162 -396.261677 
L 553.603604 -396.702795 
L 553.045045 -397.143913 
L 552.486486 -397.585031 
L 551.927928 -398.026149 
L 551.369369 -398.467267 
L 550.810811 -398.908385 
L 550.252252 -399.349503 
L 549.693694 -399.790621 
L 549.135135 -400.231739 
L 548.576577 -400.672857 
L 548.018018 -401.113976 
L 547.459459 -401.555094 
L 546.900901 -401.996212 
L 546.342342 -402.43733 
L 545.783784 -402.878448 
L 545.225225 -403.319566 
L 544.666667 -403.760684 
L 544.108108 -404.201802 
L 543.54955 -404.64292 
L 542.990991 -405.084038 
L 542.432432 -405.525156 
L 541.873874 -405.966274 
L 541.315315 -406.185399 
L 540.756757 -405.858736 
L 540.198198 -405.532074 
L 539.63964 -405.205411 
L 539.081081 -404.878749 
L 538.522523 -404.552087 
L 537.963964 -404.225424 
L 537.405405 -403.898762 
L 536.846847 -403.572099 
L 536.288288 -403.245437 
L 535.72973 -402.918774 
L 535.171171 -402.592112 
L 534.612613 -402.265449 
L 534.054054 -401.938787 
L 533.495495 -401.612124 
L 532.936937 -401.285462 
L 532.378378 -400.9588 
L 531.81982 -400.632137 
L 531.261261 -400.305475 
L 530.702703 -399.978812 
L 530.144144 -399.65215 
L 529.585586 -399.325487 
L 529.027027 -398.998825 
L 528.468468 -398.672162 
L 527.90991 -398.3455 
L 527.351351 -398.018838 
L 526.792793 -397.692175 
L 526.234234 -397.365513 
L 525.675676 -397.03885 
L 525.117117 -396.712188 
L 524.558559 -396.385525 
L 524 -396.058863 
L 523.441441 -395.7322 
L 522.882883 -395.405538 
L 522.324324 -395.078876 
L 521.765766 -394.752213 
L 521.207207 -394.425551 
L 520.648649 -394.098888 
L 520.09009 -393.772226 
L 519.531532 -393.445563 
L 518.972973 -393.118901 
L 518.414414 -392.792238 
L 517.855856 -392.465576 
L 517.297297 -392.138913 
L 516.738739 -391.812251 
L 516.18018 -391.485589 
L 515.621622 -391.158926 
L 515.063063 -390.832264 
L 514.504505 -390.505601 
L 513.945946 -390.178939 
L 513.387387 -389.852276 
L 512.828829 -389.525614 
L 512.27027 -389.198951 
L 511.711712 -388.872289 
L 511.153153 -388.545627 
L 510.594595 -388.218964 
L 510.036036 -387.892302 
L 509.477477 -387.565639 
L 508.918919 -387.238977 
L 508.36036 -386.912314 
L 507.801802 -386.585652 
L 507.243243 -386.258989 
L 506.684685 -385.932327 
L 506.126126 -385.605665 
L 505.567568 -385.279002 
L 505.009009 -384.95234 
L 504.45045 -384.625677 
L 503.891892 -384.299015 
L 503.333333 -383.972352 
L 502.774775 -383.64569 
L 502.216216 -383.319027 
L 501.657658 -382.992365 
L 501.099099 -382.665702 
L 500.540541 -382.33904 
L 499.981982 -382.012378 
L 499.423423 -381.685715 
L 498.864865 -381.359053 
L 498.306306 -381.03239 
L 497.747748 -380.705728 
L 497.189189 -380.379065 
L 496.630631 -380.052403 
L 496.072072 -379.72574 
L 495.513514 -379.399078 
L 494.954955 -379.072416 
L 494.396396 -378.745753 
L 493.837838 -378.419091 
L 493.279279 -378.092428 
L 492.720721 -377.765766 
L 492.162162 -377.439103 
L 491.603604 -377.112441 
L 491.045045 -376.785778 
L 490.486486 -376.459116 
L 489.927928 -376.132454 
L 489.369369 -375.805791 
L 488.810811 -375.479129 
L 488.252252 -375.152466 
L 487.693694 -374.825804 
L 487.135135 -374.499141 
L 486.576577 -374.172479 
L 486.018018 -373.845816 
L 485.459459 -373.519154 
L 484.900901 -373.192491 
L 484.342342 -372.865829 
L 483.783784 -372.539167 
L 483.225225 -372.212504 
L 482.666667 -371.885842 
L 482.108108 -371.559179 
L 481.54955 -371.232517 
L 480.990991 -370.905854 
L 480.432432 -370.579192 
L 479.873874 -370.252529 
L 479.315315 -369.925867 
L 478.756757 -369.599205 
L 478.198198 -369.272542 
L 477.63964 -368.94588 
L 477.081081 -368.619217 
L 476.522523 -368.292555 
L 475.963964 -367.965892 
L 475.405405 -367.63923 
L 474.846847 -367.312567 
L 474.288288 -366.985905 
L 473.72973 -366.659243 
L 473.171171 -366.33258 
L 472.612613 -366.005918 
L 472.054054 -365.679255 
L 471.495495 -365.352593 
L 470.936937 -365.02593 
L 470.378378 -364.699268 
L 469.81982 -364.372605 
L 469.261261 -364.045943 
L 468.702703 -363.71928 
L 468.144144 -363.392618 
L 467.585586 -363.065956 
L 467.027027 -362.739293 
L 466.468468 -362.412631 
L 465.90991 -362.085968 
L 465.351351 -361.759306 
L 464.792793 -361.432643 
L 464.234234 -361.105981 
L 463.675676 -360.779318 
L 463.117117 -360.452656 
L 462.558559 -360.125994 
L 462 -359.799331 
L 461.441441 -359.472669 
L 460.882883 -359.146006 
L 460.324324 -358.819344 
L 459.765766 -358.492681 
L 459.207207 -358.166019 
L 458.648649 -357.839356 
L 458.09009 -357.512694 
L 457.531532 -357.186032 
L 456.972973 -356.859369 
L 456.414414 -356.532707 
L 455.855856 -356.206044 
L 455.297297 -355.879382 
L 454.738739 -355.552719 
L 454.18018 -355.226057 
L 453.621622 -354.899394 
L 453.063063 -354.572732 
L 452.504505 -354.246069 
L 451.945946 -353.919407 
L 451.387387 -353.592745 
L 450.828829 -353.266082 
L 450.27027 -352.93942 
L 449.711712 -352.612757 
L 449.153153 -352.286095 
L 448.594595 -351.959432 
L 448.036036 -351.63277 
L 447.477477 -351.306107 
L 446.918919 -350.979445 
L 446.36036 -350.652783 
L 445.801802 -350.32612 
L 445.243243 -349.999458 
L 444.684685 -349.672795 
L 444.126126 -349.346133 
L 443.567568 -349.01947 
L 443.009009 -348.692808 
L 442.45045 -348.366145 
L 441.891892 -348.039483 
L 441.333333 -347.712821 
L 440.774775 -347.386158 
L 440.216216 -347.059496 
L 439.657658 -346.732833 
L 439.099099 -346.406171 
L 438.540541 -346.079508 
L 437.981982 -345.752846 
L 437.423423 -345.426183 
L 436.864865 -345.099521 
L 436.306306 -344.772858 
L 435.747748 -344.446196 
L 435.189189 -344.119534 
L 434.630631 -343.792871 
L 434.072072 -343.466209 
L 433.513514 -343.139546 
L 432.954955 -342.812884 
L 432.396396 -342.486221 
L 431.837838 -342.159559 
L 431.279279 -341.832896 
L 430.720721 -341.506234 
L 430.162162 -341.179572 
L 429.603604 -340.852909 
L 429.045045 -340.526247 
L 428.486486 -340.199584 
L 427.927928 -339.872922 
L 427.369369 -339.546259 
L 426.810811 -339.219597 
L 426.252252 -338.892934 
L 425.693694 -338.566272 
L 425.135135 -338.23961 
L 424.576577 -337.912947 
L 424.018018 -337.586285 
L 423.459459 -337.259622 
L 422.900901 -336.93296 
L 422.342342 -336.606297 
L 421.783784 -336.279635 
L 421.225225 -335.952972 
L 420.666667 -335.62631 
L 420.108108 -335.299647 
L 419.54955 -334.972985 
L 418.990991 -334.646323 
L 418.432432 -334.31966 
L 417.873874 -333.992998 
L 417.315315 -333.666335 
L 416.756757 -333.339673 
L 416.198198 -333.01301 
L 415.63964 -332.686348 
L 415.081081 -332.359685 
L 414.522523 -332.033023 
L 413.963964 -331.706361 
L 413.405405 -331.379698 
L 412.846847 -331.053036 
L 412.288288 -330.726373 
L 411.72973 -330.399711 
L 411.171171 -330.073048 
L 410.612613 -329.746386 
L 410.054054 -329.419723 
L 409.495495 -329.093061 
L 408.936937 -328.766399 
L 408.378378 -328.439736 
L 407.81982 -328.113074 
L 407.261261 -327.786411 
L 406.702703 -327.459749 
L 406.144144 -327.133086 
L 405.585586 -326.806424 
L 405.027027 -326.479761 
L 404.468468 -326.153099 
L 403.90991 -325.826436 
L 403.351351 -325.499774 
L 402.792793 -325.173112 
L 402.234234 -324.846449 
L 401.675676 -324.519787 
L 401.117117 -324.193124 
L 400.558559 -323.866462 
L 400 -323.539799 
L 399.441441 -323.213137 
L 398.882883 -322.886474 
L 398.324324 -322.559812 
L 397.765766 -322.23315 
L 397.207207 -321.906487 
L 396.648649 -321.579825 
L 396.09009 -321.253162 
L 395.531532 -320.9265 
L 394.972973 -320.599837 
L 394.414414 -320.273175 
L 393.855856 -319.946512 
L 393.297297 -319.61985 
L 392.738739 -319.293188 
L 392.18018 -318.966525 
L 391.621622 -318.639863 
L 391.063063 -318.3132 
L 390.504505 -317.986538 
L 389.945946 -317.659875 
L 389.387387 -317.333213 
L 388.828829 -317.00655 
L 388.27027 -316.679888 
L 387.711712 -316.353225 
L 387.153153 -316.026563 
L 386.594595 -315.699901 
L 386.036036 -315.373238 
L 385.477477 -315.046576 
L 384.918919 -314.719913 
L 384.36036 -314.393251 
L 383.801802 -314.066588 
L 383.243243 -313.739926 
L 382.684685 -313.413263 
L 382.126126 -313.086601 
L 381.567568 -312.759939 
L 381.009009 -312.433276 
L 380.45045 -312.106614 
L 379.891892 -311.779951 
L 379.333333 -311.453289 
L 378.774775 -311.126626 
L 378.216216 -310.799964 
L 377.657658 -310.473301 
L 377.099099 -310.146639 
L 376.540541 -309.819976 
L 375.981982 -309.493314 
L 375.423423 -309.166652 
L 374.864865 -308.839989 
L 374.306306 -308.513327 
L 373.747748 -308.186664 
L 373.189189 -307.860002 
L 372.630631 -307.533339 
L 372.072072 -307.206677 
L 371.513514 -306.880014 
L 370.954955 -306.553352 
L 370.396396 -306.22669 
L 369.837838 -305.900027 
L 369.279279 -305.573365 
L 368.720721 -305.246702 
L 368.162162 -304.92004 
L 367.603604 -304.593377 
L 367.045045 -304.266715 
L 366.486486 -303.940052 
L 365.927928 -303.61339 
L 365.369369 -303.286728 
L 364.810811 -302.960065 
L 364.252252 -302.633403 
L 363.693694 -302.30674 
L 363.135135 -301.980078 
L 362.576577 -301.653415 
L 362.018018 -301.326753 
L 361.459459 -301.00009 
L 360.900901 -300.673428 
L 360.342342 -300.346765 
L 359.783784 -300.020103 
L 359.225225 -299.693441 
L 358.666667 -299.366778 
L 358.108108 -299.040116 
L 357.54955 -298.713453 
L 356.990991 -298.386791 
L 356.432432 -298.060128 
L 355.873874 -297.733466 
L 355.315315 -297.406803 
L 354.756757 -297.080141 
L 354.198198 -296.753479 
L 353.63964 -296.426816 
L 353.081081 -296.100154 
L 352.522523 -295.773491 
L 351.963964 -295.446829 
L 351.405405 -295.120166 
L 350.846847 -294.793504 
L 350.288288 -294.466841 
L 349.72973 -294.140179 
L 349.171171 -293.813517 
L 348.612613 -293.486854 
L 348.054054 -293.160192 
L 347.495495 -292.833529 
L 346.936937 -292.506867 
L 346.378378 -292.180204 
L 345.81982 -291.853542 
L 345.261261 -291.526879 
L 344.702703 -291.200217 
L 344.144144 -290.873554 
L 343.585586 -290.546892 
L 343.027027 -290.22023 
L 342.468468 -289.893567 
L 341.90991 -289.566905 
L 341.351351 -289.240242 
L 340.792793 -288.91358 
L 340.234234 -288.586917 
L 339.675676 -288.260255 
L 339.117117 -287.933592 
L 338.558559 -287.60693 
L 338 -287.280268 
L 337.441441 -286.953605 
L 336.882883 -286.626943 
L 336.324324 -286.30028 
L 335.765766 -285.973618 
L 335.207207 -285.646955 
L 334.648649 -285.320293 
L 334.09009 -284.99363 
L 333.531532 -284.666968 
L 332.972973 -284.340306 
L 332.414414 -284.013643 
L 331.855856 -283.686981 
L 331.297297 -283.360318 
L 330.738739 -283.033656 
L 330.18018 -282.706993 
L 329.621622 -282.380331 
L 329.063063 -282.053668 
L 328.504505 -281.727006 
L 327.945946 -281.400343 
L 327.387387 -281.073681 
L 326.828829 -280.747019 
L 326.27027 -280.420356 
L 325.711712 -280.093694 
L 325.153153 -279.767031 
L 324.594595 -279.440369 
L 324.036036 -279.113706 
L 323.477477 -278.787044 
L 322.918919 -278.460381 
L 322.36036 -278.133719 
L 321.801802 -277.807057 
L 321.243243 -277.480394 
L 320.684685 -277.153732 
L 320.126126 -276.827069 
L 319.567568 -276.500407 
L 319.009009 -276.173744 
L 318.45045 -275.847082 
L 317.891892 -275.520419 
L 317.333333 -275.193757 
L 316.774775 -274.867095 
L 316.216216 -274.540432 
L 315.657658 -274.21377 
L 315.099099 -273.887107 
L 314.540541 -273.560445 
L 313.981982 -273.233782 
L 313.423423 -272.90712 
L 312.864865 -272.580457 
L 312.306306 -272.253795 
L 311.747748 -271.927132 
L 311.189189 -271.60047 
L 310.630631 -271.273808 
L 310.072072 -270.947145 
L 309.513514 -270.620483 
L 308.954955 -270.29382 
L 308.396396 -269.967158 
L 307.837838 -269.640495 
L 307.279279 -269.313833 
L 306.720721 -268.98717 
L 306.162162 -268.660508 
L 305.603604 -268.333846 
L 305.045045 -268.007183 
L 304.486486 -267.680521 
L 303.927928 -267.353858 
L 303.369369 -267.027196 
L 302.810811 -266.700533 
L 302.252252 -266.373871 
L 301.693694 -266.047208 
L 301.135135 -265.720546 
L 300.576577 -265.393884 
L 300.018018 -265.067221 
L 299.459459 -264.740559 
L 298.900901 -264.413896 
L 298.342342 -264.087234 
L 297.783784 -263.760571 
L 297.225225 -263.433909 
L 296.666667 -263.107246 
L 296.108108 -262.780584 
L 295.54955 -262.453921 
L 294.990991 -262.127259 
L 294.432432 -261.800597 
L 293.873874 -261.473934 
L 293.315315 -261.147272 
L 292.756757 -260.820609 
L 292.198198 -260.493947 
L 291.63964 -260.167284 
L 291.081081 -259.840622 
L 290.522523 -259.513959 
L 289.963964 -259.187297 
L 289.405405 -258.860635 
L 288.846847 -258.533972 
L 288.288288 -258.20731 
L 287.72973 -257.880647 
L 287.171171 -257.553985 
L 286.612613 -257.227322 
L 286.054054 -256.90066 
L 285.495495 -256.573997 
L 284.936937 -256.247335 
L 284.378378 -255.920673 
L 283.81982 -255.59401 
L 283.261261 -255.267348 
L 282.702703 -254.940685 
L 282.144144 -254.614023 
L 281.585586 -254.28736 
L 281.027027 -253.960698 
L 280.468468 -253.634035 
L 279.90991 -253.307373 
L 279.351351 -252.98071 
L 278.792793 -252.654048 
L 278.234234 -252.327386 
L 277.675676 -252.000723 
L 277.117117 -251.674061 
L 276.558559 -251.347398 
L 276 -251.020736 
L 275.441441 -250.694073 
L 274.882883 -250.367411 
L 274.324324 -250.040748 
L 273.765766 -249.714086 
L 273.207207 -249.387424 
L 272.648649 -249.060761 
L 272.09009 -248.734099 
L 271.531532 -248.407436 
L 270.972973 -248.080774 
L 270.414414 -247.754111 
L 269.855856 -247.427449 
L 269.297297 -247.100786 
L 268.738739 -246.774124 
L 268.18018 -246.447462 
L 267.621622 -246.120799 
L 267.063063 -245.794137 
L 266.504505 -245.467474 
L 265.945946 -245.140812 
L 265.387387 -244.814149 
L 264.828829 -244.487487 
L 264.27027 -244.160824 
L 263.711712 -243.834162 
L 263.153153 -243.507499 
L 262.594595 -243.180837 
L 262.036036 -242.854175 
L 261.477477 -242.527512 
L 260.918919 -242.20085 
L 260.36036 -241.874187 
L 259.801802 -241.547525 
L 259.243243 -241.220862 
L 258.684685 -240.8942 
L 258.126126 -240.567537 
L 257.567568 -240.240875 
L 257.009009 -239.914213 
L 256.45045 -239.58755 
L 255.891892 -239.260888 
L 255.333333 -238.934225 
L 254.774775 -238.607563 
L 254.216216 -238.2809 
L 253.657658 -237.954238 
L 253.099099 -237.627575 
L 252.540541 -237.300913 
L 251.981982 -236.974251 
L 251.423423 -236.647588 
L 250.864865 -236.320926 
L 250.306306 -235.994263 
L 249.747748 -235.667601 
L 249.189189 -235.340938 
L 248.630631 -235.014276 
L 248.072072 -234.687613 
L 247.513514 -234.360951 
L 246.954955 -234.034288 
L 246.396396 -233.707626 
L 245.837838 -233.380964 
L 245.279279 -233.054301 
L 244.720721 -232.727639 
L 244.162162 -232.400976 
L 243.603604 -232.074314 
L 243.045045 -231.747651 
L 242.486486 -231.420989 
L 241.927928 -231.094326 
L 241.369369 -230.767664 
L 240.810811 -230.441002 
L 240.252252 -230.114339 
L 239.693694 -229.787677 
L 239.135135 -229.461014 
L 238.576577 -229.134352 
L 238.018018 -228.807689 
L 237.459459 -228.481027 
L 236.900901 -228.154364 
L 236.342342 -227.827702 
L 235.783784 -227.50104 
L 235.225225 -227.174377 
L 234.666667 -226.847715 
L 234.108108 -226.521052 
L 233.54955 -226.19439 
L 232.990991 -225.867727 
L 232.432432 -225.541065 
L 231.873874 -225.214402 
L 231.315315 -224.88774 
L 230.756757 -224.561077 
L 230.198198 -224.234415 
L 229.63964 -223.907753 
L 229.081081 -223.58109 
L 228.522523 -223.254428 
L 227.963964 -222.927765 
L 227.405405 -222.601103 
L 226.846847 -222.27444 
L 226.288288 -221.947778 
L 225.72973 -221.621115 
L 225.171171 -221.294453 
L 224.612613 -220.967791 
L 224.054054 -220.641128 
L 223.495495 -220.314466 
L 222.936937 -219.987803 
L 222.378378 -219.661141 
L 221.81982 -219.334478 
L 221.261261 -219.007816 
L 220.702703 -218.681153 
L 220.144144 -218.354491 
L 219.585586 -218.027828 
L 219.027027 -217.701166 
L 218.468468 -217.374504 
L 217.90991 -217.047841 
L 217.351351 -216.721179 
L 216.792793 -216.394516 
L 216.234234 -216.067854 
L 215.675676 -215.741191 
L 215.117117 -215.414529 
L 214.558559 -215.087866 
L 214 -214.761204 
L 213.441441 -214.434542 
L 212.882883 -214.107879 
L 212.324324 -213.781217 
L 211.765766 -213.454554 
L 211.207207 -213.127892 
L 210.648649 -212.801229 
L 210.09009 -212.474567 
L 209.531532 -212.147904 
L 208.972973 -211.821242 
L 208.414414 -211.49458 
L 207.855856 -211.167917 
L 207.297297 -210.841255 
L 206.738739 -210.514592 
L 206.18018 -210.18793 
L 205.621622 -209.861267 
L 205.063063 -209.534605 
L 204.504505 -209.207942 
L 203.945946 -208.88128 
L 203.387387 -208.554617 
L 202.828829 -208.227955 
L 202.27027 -207.901293 
L 201.711712 -207.57463 
L 201.153153 -207.247968 
L 200.594595 -206.921305 
L 200.036036 -206.594643 
L 199.477477 -206.26798 
L 198.918919 -205.941318 
L 198.36036 -205.614655 
L 197.801802 -205.287993 
L 197.243243 -204.961331 
L 196.684685 -204.634668 
L 196.126126 -204.308006 
L 195.567568 -203.981343 
L 195.009009 -203.654681 
L 194.45045 -203.328018 
L 193.891892 -203.001356 
L 193.333333 -202.566262 
L 192.774775 -201.47882 
L 192.216216 -200.391378 
L 191.657658 -199.303936 
L 191.099099 -198.216493 
L 190.540541 -197.129051 
L 189.981982 -196.041609 
L 189.423423 -194.954167 
L 188.864865 -193.866725 
L 188.306306 -192.779283 
L 187.747748 -191.691841 
L 187.189189 -190.604399 
L 186.630631 -189.516957 
L 186.072072 -188.429515 
L 185.513514 -187.342072 
L 184.954955 -186.25463 
L 184.396396 -185.167188 
L 183.837838 -184.079746 
L 183.279279 -182.992304 
L 182.720721 -181.904862 
L 182.162162 -180.81742 
L 181.603604 -179.729978 
L 181.045045 -178.642536 
L 180.486486 -177.555094 
L 179.927928 -176.467651 
L 179.369369 -175.380209 
L 178.810811 -174.292767 
L 178.252252 -173.205325 
L 177.693694 -172.117883 
L 177.135135 -171.030441 
L 176.576577 -169.942999 
L 176.018018 -168.855557 
L 175.459459 -167.768115 
L 174.900901 -166.680673 
L 174.342342 -165.59323 
L 173.783784 -164.505788 
L 173.225225 -163.418346 
L 172.666667 -162.330904 
L 172.108108 -161.243462 
L 171.54955 -160.15602 
L 170.990991 -159.068578 
L 170.432432 -157.981136 
L 169.873874 -156.893694 
L 169.315315 -155.806252 
L 168.756757 -154.718809 
L 168.198198 -153.631367 
L 167.63964 -152.543925 
L 167.081081 -151.456483 
L 166.522523 -150.369041 
L 165.963964 -149.281599 
L 165.405405 -148.194157 
L 164.846847 -147.106715 
L 164.288288 -146.019273 
L 163.72973 -144.931831 
L 163.171171 -143.844389 
L 162.612613 -142.756946 
L 162.054054 -141.669504 
L 161.495495 -140.582062 
L 160.936937 -139.49462 
L 160.378378 -138.407178 
L 159.81982 -137.319736 
L 159.261261 -136.232294 
L 158.702703 -135.144852 
L 158.144144 -134.05741 
L 157.585586 -132.969968 
L 157.027027 -131.882525 
L 156.468468 -130.795083 
L 155.90991 -129.707641 
L 155.351351 -128.620199 
L 154.792793 -127.532757 
L 154.234234 -126.445315 
L 153.675676 -125.357873 
L 153.117117 -124.270431 
L 152.558559 -123.182989 
L 152 -122.095547 
L 151.441441 -121.008104 
L 150.882883 -119.920662 
L 150.324324 -118.83322 
L 149.765766 -117.745778 
L 149.207207 -116.658336 
L 148.648649 -115.570894 
L 148.09009 -114.483452 
L 147.531532 -113.39601 
L 146.972973 -112.308568 
L 146.414414 -111.221126 
L 145.855856 -110.133683 
L 145.297297 -109.046241 
L 144.738739 -107.958799 
L 144.18018 -106.871357 
L 143.621622 -105.783915 
L 143.063063 -104.696473 
L 142.504505 -103.609031 
L 141.945946 -102.521589 
L 141.387387 -101.434147 
L 140.828829 -100.346705 
L 140.27027 -99.259263 
L 139.711712 -98.17182 
L 139.153153 -97.084378 
L 138.594595 -95.996936 
L 138.036036 -94.909494 
L 137.477477 -93.822052 
L 136.918919 -92.73461 
L 136.36036 -91.647168 
L 135.801802 -90.559726 
L 135.243243 -89.472284 
L 134.684685 -88.384842 
L 134.126126 -87.297399 
L 133.567568 -86.209957 
L 133.009009 -85.122515 
L 132.45045 -84.035073 
L 131.891892 -82.947631 
L 131.333333 -81.860189 
L 130.774775 -80.772747 
L 130.216216 -79.685305 
L 129.657658 -78.597863 
L 129.099099 -77.510421 
L 128.540541 -76.422978 
L 127.981982 -75.335536 
L 127.423423 -74.248094 
L 126.864865 -73.160652 
L 126.306306 -72.07321 
L 125.747748 -70.985768 
L 125.189189 -69.898326 
L 124.630631 -68.810884 
L 124.072072 -67.723442 
L 123.513514 -66.636 
L 122.954955 -65.548557 
L 122.396396 -64.461115 
L 121.837838 -63.373673 
L 121.279279 -62.286231 
L 120.720721 -61.198789 
L 120.162162 -60.111347 
L 119.603604 -59.023905 
L 119.045045 -57.936463 
L 118.486486 -56.849021 
L 117.927928 -55.761579 
L 117.369369 -54.674136 
L 116.810811 -53.586694 
L 116.252252 -52.499252 
L 115.693694 -51.41181 
L 115.135135 -50.324368 
L 114.576577 -49.236926 
L 114.018018 -48.149484 
L 113.459459 -47.062042 
L 112.900901 -45.9746 
L 112.342342 -44.887158 
L 111.783784 -43.799716 
L 111.225225 -42.712273 
L 110.666667 -41.624831 
L 110.108108 -40.537389 
L 109.54955 -39.449947 
L 108.990991 -38.362505 
L 108.432432 -37.275063 
L 107.873874 -36.187621 
L 107.315315 -35.100179 
L 106.756757 -34.012737 
L 106.198198 -32.925295 
L 105.63964 -31.837852 
L 105.081081 -30.75041 
L 104.522523 -29.662968 
L 103.963964 -28.575526 
L 103.405405 -27.488084 
L 102.846847 -26.400642 
L 102.288288 -25.3132 
L 101.72973 -24.225758 
L 101.171171 -23.138316 
L 100.612613 -22.050874 
L 100.054054 -20.963431 
L 99.495495 -19.875989 
L 98.936937 -18.788547 
L 98.378378 -17.701105 
L 97.81982 -16.613663 
L 97.261261 -15.526221 
L 96.702703 -14.438779 
L 96.144144 -13.351337 
L 95.585586 -12.263895 
L 95.027027 -11.176453 
L 94.468468 -10.08901 
L 93.90991 -9.001568 
L 93.351351 -7.914126 
L 92.792793 -6.826684 
L 92.234234 -5.739242 
L 91.675676 -4.6518 
L 91.117117 -3.564358 
L 90.558559 -2.476916 
L 90 -1.389474 
z
" style="stroke: #808080; stroke-opacity: 0.4"/>
    </defs>
    <g clip-path="url(#pe7c33990cf)">
     <use xlink:href="#m580f33ee74" x="0" y="720" style="fill: #808080; fill-opacity: 0.4; stroke: #808080; stroke-opacity: 0.4"/>
    </g>
   </g>
   <g id="matplotlib.axis_1">
    <g id="xtick_1">
     <g id="line2d_1">
      <path d="M 90 640.8 
L 90 86.4 
" clip-path="url(#pe7c33990cf)" style="fill: none; stroke-dasharray: 2.96,1.28; stroke-dashoffset: 0; stroke: #808080; stroke-width: 0.8"/>
     </g>
     <g id="line2d_2">
      <defs>
       <path id="mebb9b4dda2" d="M 0 0 
L 0 3.5 
" style="stroke: #000000; stroke-width: 0.8"/>
      </defs>
      <g>
       <use xlink:href="#mebb9b4dda2" x="90" y="640.8" style="stroke: #000000; stroke-width: 0.8"/>
      </g>
     </g>
     <g id="text_1">
      <!-- 40 -->
      <g transform="translate(79.447656 655.398438) scale(0.1 -0.1)">
       <defs>
        <path id="DejaVuSans-2212" d="M 678 2272 
L 4684 2272 
L 4684 1741 
L 678 1741 
L 678 2272 
z
" transform="scale(0.015625)"/>
        <path id="DejaVuSans-34" d="M 2419 4116 
L 825 1625 
L 2419 1625 
L 2419 4116 
z
M 2253 4666 
L 3047 4666 
L 3047 1625 
L 3713 1625 
L 3713 1100 
L 3047 1100 
L 3047 0 
L 2419 0 
L 2419 1100 
L 313 1100 
L 313 1709 
L 2253 4666 
z
" transform="scale(0.015625)"/>
        <path id="DejaVuSans-30" d="M 2034 4250 
Q 1547 4250 1301 3770 
Q 1056 3291 1056 2328 
Q 1056 1369 1301 889 
Q 1547 409 2034 409 
Q 2525 409 2770 889 
Q 3016 1369 3016 2328 
Q 3016 3291 2770 3770 
Q 2525 4250 2034 4250 
z
M 2034 4750 
Q 2819 4750 3233 4129 
Q 3647 3509 3647 2328 
Q 3647 1150 3233 529 
Q 2819 -91 2034 -91 
Q 1250 -91 836 529 
Q 422 1150 422 2328 
Q 422 3509 836 4129 
Q 1250 4750 2034 4750 
z
" transform="scale(0.015625)"/>
       </defs>
       <use xlink:href="#DejaVuSans-2212"/>
       <use xlink:href="#DejaVuSans-34" x="83.789062"/>
       <use xlink:href="#DejaVuSans-30" x="147.412109"/>
      </g>
     </g>
    </g>
    <g id="xtick_2">
     <g id="line2d_3">
      <path d="M 191.454545 640.8 
L 191.454545 86.4 
" clip-path="url(#pe7c33990cf)" style="fill: none; stroke-dasharray: 2.96,1.28; stroke-dashoffset: 0; stroke: #808080; stroke-width: 0.8"/>
     </g>
     <g id="line2d_4">
      <g>
       <use xlink:href="#mebb9b4dda2" x="191.454545" y="640.8" style="stroke: #000000; stroke-width: 0.8"/>
      </g>
     </g>
     <g id="text_2">
      <!-- 30 -->
      <g transform="translate(180.902202 655.398438) scale(0.1 -0.1)">
       <defs>
        <path id="DejaVuSans-33" d="M 2597 2516 
Q 3050 2419 3304 2112 
Q 3559 1806 3559 1356 
Q 3559 666 3084 287 
Q 2609 -91 1734 -91 
Q 1441 -91 1130 -33 
Q 819 25 488 141 
L 488 750 
Q 750 597 1062 519 
Q 1375 441 1716 441 
Q 2309 441 2620 675 
Q 2931 909 2931 1356 
Q 2931 1769 2642 2001 
Q 2353 2234 1838 2234 
L 1294 2234 
L 1294 2753 
L 1863 2753 
Q 2328 2753 2575 2939 
Q 2822 3125 2822 3475 
Q 2822 3834 2567 4026 
Q 2313 4219 1838 4219 
Q 1578 4219 1281 4162 
Q 984 4106 628 3988 
L 628 4550 
Q 988 4650 1302 4700 
Q 1616 4750 1894 4750 
Q 2613 4750 3031 4423 
Q 3450 4097 3450 3541 
Q 3450 3153 3228 2886 
Q 3006 2619 2597 2516 
z
" transform="scale(0.015625)"/>
       </defs>
       <use xlink:href="#DejaVuSans-2212"/>
       <use xlink:href="#DejaVuSans-33" x="83.789062"/>
       <use xlink:href="#DejaVuSans-30" x="147.412109"/>
      </g>
     </g>
    </g>
    <g id="xtick_3">
     <g id="line2d_5">
      <path d="M 292.909091 640.8 
L 292.909091 86.4 
" clip-path="url(#pe7c33990cf)" style="fill: none; stroke-dasharray: 2.96,1.28; stroke-dashoffset: 0; stroke: #808080; stroke-width: 0.8"/>
     </g>
     <g id="line2d_6">
      <g>
       <use xlink:href="#mebb9b4dda2" x="292.909091" y="640.8" style="stroke: #000000; stroke-width: 0.8"/>
      </g>
     </g>
     <g id="text_3">
      <!-- 20 -->
      <g transform="translate(282.356747 655.398438) scale(0.1 -0.1)">
       <defs>
        <path id="DejaVuSans-32" d="M 1228 531 
L 3431 531 
L 3431 0 
L 469 0 
L 469 531 
Q 828 903 1448 1529 
Q 2069 2156 2228 2338 
Q 2531 2678 2651 2914 
Q 2772 3150 2772 3378 
Q 2772 3750 2511 3984 
Q 2250 4219 1831 4219 
Q 1534 4219 1204 4116 
Q 875 4013 500 3803 
L 500 4441 
Q 881 4594 1212 4672 
Q 1544 4750 1819 4750 
Q 2544 4750 2975 4387 
Q 3406 4025 3406 3419 
Q 3406 3131 3298 2873 
Q 3191 2616 2906 2266 
Q 2828 2175 2409 1742 
Q 1991 1309 1228 531 
z
" transform="scale(0.015625)"/>
       </defs>
       <use xlink:href="#DejaVuSans-2212"/>
       <use xlink:href="#DejaVuSans-32" x="83.789062"/>
       <use xlink:href="#DejaVuSans-30" x="147.412109"/>
      </g>
     </g>
    </g>
    <g id="xtick_4">
     <g id="line2d_7">
      <path d="M 394.363636 640.8 
L 394.363636 86.4 
" clip-path="url(#pe7c33990cf)" style="fill: none; stroke-dasharray: 2.96,1.28; stroke-dashoffset: 0; stroke: #808080; stroke-width: 0.8"/>
     </g>
     <g id="line2d_8">
      <g>
       <use xlink:href="#mebb9b4dda2" x="394.363636" y="640.8" style="stroke: #000000; stroke-width: 0.8"/>
      </g>
     </g>
     <g id="text_4">
      <!-- 10 -->
      <g transform="translate(383.811293 655.398438) scale(0.1 -0.1)">
       <defs>
        <path id="DejaVuSans-31" d="M 794 531 
L 1825 531 
L 1825 4091 
L 703 3866 
L 703 4441 
L 1819 4666 
L 2450 4666 
L 2450 531 
L 3481 531 
L 3481 0 
L 794 0 
L 794 531 
z
" transform="scale(0.015625)"/>
       </defs>
       <use xlink:href="#DejaVuSans-2212"/>
       <use xlink:href="#DejaVuSans-31" x="83.789062"/>
       <use xlink:href="#DejaVuSans-30" x="147.412109"/>
      </g>
     </g>
    </g>
    <g id="xtick_5">
     <g id="line2d_9">
      <path d="M 495.818182 640.8 
L 495.818182 86.4 
" clip-path="url(#pe7c33990cf)" style="fill: none; stroke-dasharray: 2.96,1.28; stroke-dashoffset: 0; stroke: #808080; stroke-width: 0.8"/>
     </g>
     <g id="line2d_10">
      <g>
       <use xlink:href="#mebb9b4dda2" x="495.818182" y="640.8" style="stroke: #000000; stroke-width: 0.8"/>
      </g>
     </g>
     <g id="text_5">
      <!-- 0 -->
      <g transform="translate(492.636932 655.398438) scale(0.1 -0.1)">
       <use xlink:href="#DejaVuSans-30"/>
      </g>
     </g>
    </g>
    <g id="xtick_6">
     <g id="line2d_11">
      <path d="M 597.272727 640.8 
L 597.272727 86.4 
" clip-path="url(#pe7c33990cf)" style="fill: none; stroke-dasharray: 2.96,1.28; stroke-dashoffset: 0; stroke: #808080; stroke-width: 0.8"/>
     </g>
     <g id="line2d_12">
      <g>
       <use xlink:href="#mebb9b4dda2" x="597.272727" y="640.8" style="stroke: #000000; stroke-width: 0.8"/>
      </g>
     </g>
     <g id="text_6">
      <!-- 10 -->
      <g transform="translate(590.910227 655.398438) scale(0.1 -0.1)">
       <use xlink:href="#DejaVuSans-31"/>
       <use xlink:href="#DejaVuSans-30" x="63.623047"/>
      </g>
     </g>
    </g>
    <g id="text_7">
     <!-- $x_1$ -->
     <g transform="translate(363.65 669.076563) scale(0.1 -0.1)">
      <defs>
       <path id="DejaVuSans-Oblique-78" d="M 3841 3500 
L 2234 1784 
L 3219 0 
L 2559 0 
L 1819 1388 
L 531 0 
L -166 0 
L 1556 1844 
L 641 3500 
L 1300 3500 
L 1972 2234 
L 3144 3500 
L 3841 3500 
z
" transform="scale(0.015625)"/>
      </defs>
      <use xlink:href="#DejaVuSans-Oblique-78" transform="translate(0 0.3125)"/>
      <use xlink:href="#DejaVuSans-31" transform="translate(59.179688 -16.09375) scale(0.7)"/>
     </g>
    </g>
   </g>
   <g id="matplotlib.axis_2">
    <g id="ytick_1">
     <g id="line2d_13">
      <path d="M 90 640.8 
L 648 640.8 
" clip-path="url(#pe7c33990cf)" style="fill: none; stroke-dasharray: 2.96,1.28; stroke-dashoffset: 0; stroke: #808080; stroke-width: 0.8"/>
     </g>
     <g id="line2d_14">
      <defs>
       <path id="m6ce2aaaf2d" d="M 0 0 
L -3.5 0 
" style="stroke: #000000; stroke-width: 0.8"/>
      </defs>
      <g>
       <use xlink:href="#m6ce2aaaf2d" x="90" y="640.8" style="stroke: #000000; stroke-width: 0.8"/>
      </g>
     </g>
     <g id="text_8">
      <!-- 30 -->
      <g transform="translate(61.895313 644.599219) scale(0.1 -0.1)">
       <use xlink:href="#DejaVuSans-2212"/>
       <use xlink:href="#DejaVuSans-33" x="83.789062"/>
       <use xlink:href="#DejaVuSans-30" x="147.412109"/>
      </g>
     </g>
    </g>
    <g id="ytick_2">
     <g id="line2d_15">
      <path d="M 90 555.507692 
L 648 555.507692 
" clip-path="url(#pe7c33990cf)" style="fill: none; stroke-dasharray: 2.96,1.28; stroke-dashoffset: 0; stroke: #808080; stroke-width: 0.8"/>
     </g>
     <g id="line2d_16">
      <g>
       <use xlink:href="#m6ce2aaaf2d" x="90" y="555.507692" style="stroke: #000000; stroke-width: 0.8"/>
      </g>
     </g>
     <g id="text_9">
      <!-- 20 -->
      <g transform="translate(61.895313 559.306911) scale(0.1 -0.1)">
       <use xlink:href="#DejaVuSans-2212"/>
       <use xlink:href="#DejaVuSans-32" x="83.789062"/>
       <use xlink:href="#DejaVuSans-30" x="147.412109"/>
      </g>
     </g>
    </g>
    <g id="ytick_3">
     <g id="line2d_17">
      <path d="M 90 470.215385 
L 648 470.215385 
" clip-path="url(#pe7c33990cf)" style="fill: none; stroke-dasharray: 2.96,1.28; stroke-dashoffset: 0; stroke: #808080; stroke-width: 0.8"/>
     </g>
     <g id="line2d_18">
      <g>
       <use xlink:href="#m6ce2aaaf2d" x="90" y="470.215385" style="stroke: #000000; stroke-width: 0.8"/>
      </g>
     </g>
     <g id="text_10">
      <!-- 10 -->
      <g transform="translate(61.895313 474.014603) scale(0.1 -0.1)">
       <use xlink:href="#DejaVuSans-2212"/>
       <use xlink:href="#DejaVuSans-31" x="83.789062"/>
       <use xlink:href="#DejaVuSans-30" x="147.412109"/>
      </g>
     </g>
    </g>
    <g id="ytick_4">
     <g id="line2d_19">
      <path d="M 90 384.923077 
L 648 384.923077 
" clip-path="url(#pe7c33990cf)" style="fill: none; stroke-dasharray: 2.96,1.28; stroke-dashoffset: 0; stroke: #808080; stroke-width: 0.8"/>
     </g>
     <g id="line2d_20">
      <g>
       <use xlink:href="#m6ce2aaaf2d" x="90" y="384.923077" style="stroke: #000000; stroke-width: 0.8"/>
      </g>
     </g>
     <g id="text_11">
      <!-- 0 -->
      <g transform="translate(76.6375 388.722296) scale(0.1 -0.1)">
       <use xlink:href="#DejaVuSans-30"/>
      </g>
     </g>
    </g>
    <g id="ytick_5">
     <g id="line2d_21">
      <path d="M 90 299.630769 
L 648 299.630769 
" clip-path="url(#pe7c33990cf)" style="fill: none; stroke-dasharray: 2.96,1.28; stroke-dashoffset: 0; stroke: #808080; stroke-width: 0.8"/>
     </g>
     <g id="line2d_22">
      <g>
       <use xlink:href="#m6ce2aaaf2d" x="90" y="299.630769" style="stroke: #000000; stroke-width: 0.8"/>
      </g>
     </g>
     <g id="text_12">
      <!-- 10 -->
      <g transform="translate(70.275 303.429988) scale(0.1 -0.1)">
       <use xlink:href="#DejaVuSans-31"/>
       <use xlink:href="#DejaVuSans-30" x="63.623047"/>
      </g>
     </g>
    </g>
    <g id="ytick_6">
     <g id="line2d_23">
      <path d="M 90 214.338462 
L 648 214.338462 
" clip-path="url(#pe7c33990cf)" style="fill: none; stroke-dasharray: 2.96,1.28; stroke-dashoffset: 0; stroke: #808080; stroke-width: 0.8"/>
     </g>
     <g id="line2d_24">
      <g>
       <use xlink:href="#m6ce2aaaf2d" x="90" y="214.338462" style="stroke: #000000; stroke-width: 0.8"/>
      </g>
     </g>
     <g id="text_13">
      <!-- 20 -->
      <g transform="translate(70.275 218.13768) scale(0.1 -0.1)">
       <use xlink:href="#DejaVuSans-32"/>
       <use xlink:href="#DejaVuSans-30" x="63.623047"/>
      </g>
     </g>
    </g>
    <g id="ytick_7">
     <g id="line2d_25">
      <path d="M 90 129.046154 
L 648 129.046154 
" clip-path="url(#pe7c33990cf)" style="fill: none; stroke-dasharray: 2.96,1.28; stroke-dashoffset: 0; stroke: #808080; stroke-width: 0.8"/>
     </g>
     <g id="line2d_26">
      <g>
       <use xlink:href="#m6ce2aaaf2d" x="90" y="129.046154" style="stroke: #000000; stroke-width: 0.8"/>
      </g>
     </g>
     <g id="text_14">
      <!-- 30 -->
      <g transform="translate(70.275 132.845373) scale(0.1 -0.1)">
       <use xlink:href="#DejaVuSans-33"/>
       <use xlink:href="#DejaVuSans-30" x="63.623047"/>
      </g>
     </g>
    </g>
    <g id="text_15">
     <!-- $x_2$ -->
     <g transform="translate(55.815625 368.95) rotate(-90) scale(0.1 -0.1)">
      <use xlink:href="#DejaVuSans-Oblique-78" transform="translate(0 0.3125)"/>
      <use xlink:href="#DejaVuSans-32" transform="translate(59.179688 -16.09375) scale(0.7)"/>
     </g>
    </g>
   </g>
   <g id="line2d_27">
    <path d="M 142.967532 -1 
L 648 397.846154 
L 648 397.846154 
" clip-path="url(#pe7c33990cf)" style="fill: none; stroke-dasharray: 5.55,2.4; stroke-dashoffset: 0; stroke: #ff0000; stroke-width: 1.5"/>
   </g>
   <g id="line2d_28">
    <path d="M 90 577.75786 
L 648 251.422074 
L 648 251.422074 
" clip-path="url(#pe7c33990cf)" style="fill: none; stroke-dasharray: 1.5,2.475; stroke-dashoffset: 0; stroke: #008000; stroke-width: 1.5"/>
   </g>
   <g id="line2d_29">
    <path d="M 90 718.610526 
L 459.623927 -1 
L 459.623927 -1 
" clip-path="url(#pe7c33990cf)" style="fill: none; stroke-dasharray: 9.6,2.4,1.5,2.4; stroke-dashoffset: 0; stroke: #bf00bf; stroke-width: 1.5"/>
   </g>
   <g id="line2d_30">
    <path d="M 541.476815 313.720151 
" clip-path="url(#pe7c33990cf)" style="fill: none; stroke: #0000ff; stroke-width: 1.5; stroke-linecap: square"/>
    <defs>
     <path id="m030b7108b4" d="M 0 3 
C 0.795609 3 1.55874 2.683901 2.12132 2.12132 
C 2.683901 1.55874 3 0.795609 3 0 
C 3 -0.795609 2.683901 -1.55874 2.12132 -2.12132 
C 1.55874 -2.683901 0.795609 -3 0 -3 
C -0.795609 -3 -1.55874 -2.683901 -2.12132 -2.12132 
C -2.683901 -1.55874 -3 -0.795609 -3 0 
C -3 0.795609 -2.683901 1.55874 -2.12132 2.12132 
C -1.55874 2.683901 -0.795609 3 0 3 
z
" style="stroke: #0000ff"/>
    </defs>
    <g clip-path="url(#pe7c33990cf)">
     <use xlink:href="#m030b7108b4" x="541.476815" y="313.720151" style="fill: #0000ff; stroke: #0000ff"/>
    </g>
   </g>
   <g id="line2d_31">
    <path d="M 193.412943 517.278748 
" clip-path="url(#pe7c33990cf)" style="fill: none; stroke: #0000ff; stroke-width: 1.5; stroke-linecap: square"/>
    <g clip-path="url(#pe7c33990cf)">
     <use xlink:href="#m030b7108b4" x="193.412943" y="517.278748" style="fill: #0000ff; stroke: #0000ff"/>
    </g>
   </g>
   <g id="line2d_32">
    <path d="M 368.241949 176.909026 
" clip-path="url(#pe7c33990cf)" style="fill: none; stroke: #0000ff; stroke-width: 1.5; stroke-linecap: square"/>
    <g clip-path="url(#pe7c33990cf)">
     <use xlink:href="#m030b7108b4" x="368.241949" y="176.909026" style="fill: #0000ff; stroke: #0000ff"/>
    </g>
   </g>
   <g id="patch_3">
    <path d="M 90 640.8 
L 90 86.4 
" style="fill: none; stroke: #000000; stroke-width: 0.8; stroke-linejoin: miter; stroke-linecap: square"/>
   </g>
   <g id="patch_4">
    <path d="M 648 640.8 
L 648 86.4 
" style="fill: none; stroke: #000000; stroke-width: 0.8; stroke-linejoin: miter; stroke-linecap: square"/>
   </g>
   <g id="patch_5">
    <path d="M 90 640.8 
L 648 640.8 
" style="fill: none; stroke: #000000; stroke-width: 0.8; stroke-linejoin: miter; stroke-linecap: square"/>
   </g>
   <g id="patch_6">
    <path d="M 90 86.4 
L 648 86.4 
" style="fill: none; stroke: #000000; stroke-width: 0.8; stroke-linejoin: miter; stroke-linecap: square"/>
   </g>
   <g id="text_16">
    <!-- $ f0: 6.2x1 + 6.6x2 = 83 $ -->
    <g transform="translate(434.568473 245.314589) rotate(38.299689) scale(0.1 -0.1)">
     <defs>
      <path id="DejaVuSans-Oblique-66" d="M 3059 4863 
L 2969 4384 
L 2419 4384 
Q 2106 4384 1964 4261 
Q 1822 4138 1753 3809 
L 1691 3500 
L 2638 3500 
L 2553 3053 
L 1606 3053 
L 1013 0 
L 434 0 
L 1031 3053 
L 481 3053 
L 563 3500 
L 1113 3500 
L 1159 3744 
Q 1278 4363 1576 4613 
Q 1875 4863 2516 4863 
L 3059 4863 
z
" transform="scale(0.015625)"/>
      <path id="DejaVuSans-3a" d="M 750 794 
L 1409 794 
L 1409 0 
L 750 0 
L 750 794 
z
M 750 3309 
L 1409 3309 
L 1409 2516 
L 750 2516 
L 750 3309 
z
" transform="scale(0.015625)"/>
      <path id="DejaVuSans-36" d="M 2113 2584 
Q 1688 2584 1439 2293 
Q 1191 2003 1191 1497 
Q 1191 994 1439 701 
Q 1688 409 2113 409 
Q 2538 409 2786 701 
Q 3034 994 3034 1497 
Q 3034 2003 2786 2293 
Q 2538 2584 2113 2584 
z
M 3366 4563 
L 3366 3988 
Q 3128 4100 2886 4159 
Q 2644 4219 2406 4219 
Q 1781 4219 1451 3797 
Q 1122 3375 1075 2522 
Q 1259 2794 1537 2939 
Q 1816 3084 2150 3084 
Q 2853 3084 3261 2657 
Q 3669 2231 3669 1497 
Q 3669 778 3244 343 
Q 2819 -91 2113 -91 
Q 1303 -91 875 529 
Q 447 1150 447 2328 
Q 447 3434 972 4092 
Q 1497 4750 2381 4750 
Q 2619 4750 2861 4703 
Q 3103 4656 3366 4563 
z
" transform="scale(0.015625)"/>
      <path id="DejaVuSans-2e" d="M 684 794 
L 1344 794 
L 1344 0 
L 684 0 
L 684 794 
z
" transform="scale(0.015625)"/>
      <path id="DejaVuSans-2b" d="M 2944 4013 
L 2944 2272 
L 4684 2272 
L 4684 1741 
L 2944 1741 
L 2944 0 
L 2419 0 
L 2419 1741 
L 678 1741 
L 678 2272 
L 2419 2272 
L 2419 4013 
L 2944 4013 
z
" transform="scale(0.015625)"/>
      <path id="DejaVuSans-3d" d="M 678 2906 
L 4684 2906 
L 4684 2381 
L 678 2381 
L 678 2906 
z
M 678 1631 
L 4684 1631 
L 4684 1100 
L 678 1100 
L 678 1631 
z
" transform="scale(0.015625)"/>
      <path id="DejaVuSans-38" d="M 2034 2216 
Q 1584 2216 1326 1975 
Q 1069 1734 1069 1313 
Q 1069 891 1326 650 
Q 1584 409 2034 409 
Q 2484 409 2743 651 
Q 3003 894 3003 1313 
Q 3003 1734 2745 1975 
Q 2488 2216 2034 2216 
z
M 1403 2484 
Q 997 2584 770 2862 
Q 544 3141 544 3541 
Q 544 4100 942 4425 
Q 1341 4750 2034 4750 
Q 2731 4750 3128 4425 
Q 3525 4100 3525 3541 
Q 3525 3141 3298 2862 
Q 3072 2584 2669 2484 
Q 3125 2378 3379 2068 
Q 3634 1759 3634 1313 
Q 3634 634 3220 271 
Q 2806 -91 2034 -91 
Q 1263 -91 848 271 
Q 434 634 434 1313 
Q 434 1759 690 2068 
Q 947 2378 1403 2484 
z
M 1172 3481 
Q 1172 3119 1398 2916 
Q 1625 2713 2034 2713 
Q 2441 2713 2670 2916 
Q 2900 3119 2900 3481 
Q 2900 3844 2670 4047 
Q 2441 4250 2034 4250 
Q 1625 4250 1398 4047 
Q 1172 3844 1172 3481 
z
" transform="scale(0.015625)"/>
     </defs>
     <use xlink:href="#DejaVuSans-Oblique-66" transform="translate(0 0.015625)"/>
     <use xlink:href="#DejaVuSans-30" transform="translate(35.205078 0.015625)"/>
     <use xlink:href="#DejaVuSans-3a" transform="translate(118.310547 0.015625)"/>
     <use xlink:href="#DejaVuSans-36" transform="translate(171.484375 0.015625)"/>
     <use xlink:href="#DejaVuSans-2e" transform="translate(235.107422 0.015625)"/>
     <use xlink:href="#DejaVuSans-32" transform="translate(261.394531 0.015625)"/>
     <use xlink:href="#DejaVuSans-Oblique-78" transform="translate(325.017578 0.015625)"/>
     <use xlink:href="#DejaVuSans-31" transform="translate(384.197266 0.015625)"/>
     <use xlink:href="#DejaVuSans-2b" transform="translate(467.302734 0.015625)"/>
     <use xlink:href="#DejaVuSans-36" transform="translate(570.574219 0.015625)"/>
     <use xlink:href="#DejaVuSans-2e" transform="translate(634.197266 0.015625)"/>
     <use xlink:href="#DejaVuSans-36" transform="translate(665.984375 0.015625)"/>
     <use xlink:href="#DejaVuSans-Oblique-78" transform="translate(729.607422 0.015625)"/>
     <use xlink:href="#DejaVuSans-32" transform="translate(788.787109 0.015625)"/>
     <use xlink:href="#DejaVuSans-3d" transform="translate(871.892578 0.015625)"/>
     <use xlink:href="#DejaVuSans-38" transform="translate(975.164062 0.015625)"/>
     <use xlink:href="#DejaVuSans-33" transform="translate(1038.787109 0.015625)"/>
    </g>
   </g>
   <g id="patch_7">
    <path d="M 531.388269 285.562186 
Q 536.095724 298.70108 540.426077 310.787456 
" style="fill: none; stroke: #000000; stroke-linecap: round"/>
    <path d="M 540.959724 306.347274 
L 540.426077 310.787456 
L 537.194119 307.696429 
" style="fill: none; stroke: #000000; stroke-linecap: round"/>
   </g>
   <g id="text_17">
    <!-- Intersection of  -->
    <g transform="translate(488.517227 268.405416) scale(0.1 -0.1)">
     <defs>
      <path id="DejaVuSans-49" d="M 628 4666 
L 1259 4666 
L 1259 0 
L 628 0 
L 628 4666 
z
" transform="scale(0.015625)"/>
      <path id="DejaVuSans-6e" d="M 3513 2113 
L 3513 0 
L 2938 0 
L 2938 2094 
Q 2938 2591 2744 2837 
Q 2550 3084 2163 3084 
Q 1697 3084 1428 2787 
Q 1159 2491 1159 1978 
L 1159 0 
L 581 0 
L 581 3500 
L 1159 3500 
L 1159 2956 
Q 1366 3272 1645 3428 
Q 1925 3584 2291 3584 
Q 2894 3584 3203 3211 
Q 3513 2838 3513 2113 
z
" transform="scale(0.015625)"/>
      <path id="DejaVuSans-74" d="M 1172 4494 
L 1172 3500 
L 2356 3500 
L 2356 3053 
L 1172 3053 
L 1172 1153 
Q 1172 725 1289 603 
Q 1406 481 1766 481 
L 2356 481 
L 2356 0 
L 1766 0 
Q 1100 0 847 248 
Q 594 497 594 1153 
L 594 3053 
L 172 3053 
L 172 3500 
L 594 3500 
L 594 4494 
L 1172 4494 
z
" transform="scale(0.015625)"/>
      <path id="DejaVuSans-65" d="M 3597 1894 
L 3597 1613 
L 953 1613 
Q 991 1019 1311 708 
Q 1631 397 2203 397 
Q 2534 397 2845 478 
Q 3156 559 3463 722 
L 3463 178 
Q 3153 47 2828 -22 
Q 2503 -91 2169 -91 
Q 1331 -91 842 396 
Q 353 884 353 1716 
Q 353 2575 817 3079 
Q 1281 3584 2069 3584 
Q 2775 3584 3186 3129 
Q 3597 2675 3597 1894 
z
M 3022 2063 
Q 3016 2534 2758 2815 
Q 2500 3097 2075 3097 
Q 1594 3097 1305 2825 
Q 1016 2553 972 2059 
L 3022 2063 
z
" transform="scale(0.015625)"/>
      <path id="DejaVuSans-72" d="M 2631 2963 
Q 2534 3019 2420 3045 
Q 2306 3072 2169 3072 
Q 1681 3072 1420 2755 
Q 1159 2438 1159 1844 
L 1159 0 
L 581 0 
L 581 3500 
L 1159 3500 
L 1159 2956 
Q 1341 3275 1631 3429 
Q 1922 3584 2338 3584 
Q 2397 3584 2469 3576 
Q 2541 3569 2628 3553 
L 2631 2963 
z
" transform="scale(0.015625)"/>
      <path id="DejaVuSans-73" d="M 2834 3397 
L 2834 2853 
Q 2591 2978 2328 3040 
Q 2066 3103 1784 3103 
Q 1356 3103 1142 2972 
Q 928 2841 928 2578 
Q 928 2378 1081 2264 
Q 1234 2150 1697 2047 
L 1894 2003 
Q 2506 1872 2764 1633 
Q 3022 1394 3022 966 
Q 3022 478 2636 193 
Q 2250 -91 1575 -91 
Q 1294 -91 989 -36 
Q 684 19 347 128 
L 347 722 
Q 666 556 975 473 
Q 1284 391 1588 391 
Q 1994 391 2212 530 
Q 2431 669 2431 922 
Q 2431 1156 2273 1281 
Q 2116 1406 1581 1522 
L 1381 1569 
Q 847 1681 609 1914 
Q 372 2147 372 2553 
Q 372 3047 722 3315 
Q 1072 3584 1716 3584 
Q 2034 3584 2315 3537 
Q 2597 3491 2834 3397 
z
" transform="scale(0.015625)"/>
      <path id="DejaVuSans-63" d="M 3122 3366 
L 3122 2828 
Q 2878 2963 2633 3030 
Q 2388 3097 2138 3097 
Q 1578 3097 1268 2742 
Q 959 2388 959 1747 
Q 959 1106 1268 751 
Q 1578 397 2138 397 
Q 2388 397 2633 464 
Q 2878 531 3122 666 
L 3122 134 
Q 2881 22 2623 -34 
Q 2366 -91 2075 -91 
Q 1284 -91 818 406 
Q 353 903 353 1747 
Q 353 2603 823 3093 
Q 1294 3584 2113 3584 
Q 2378 3584 2631 3529 
Q 2884 3475 3122 3366 
z
" transform="scale(0.015625)"/>
      <path id="DejaVuSans-69" d="M 603 3500 
L 1178 3500 
L 1178 0 
L 603 0 
L 603 3500 
z
M 603 4863 
L 1178 4863 
L 1178 4134 
L 603 4134 
L 603 4863 
z
" transform="scale(0.015625)"/>
      <path id="DejaVuSans-6f" d="M 1959 3097 
Q 1497 3097 1228 2736 
Q 959 2375 959 1747 
Q 959 1119 1226 758 
Q 1494 397 1959 397 
Q 2419 397 2687 759 
Q 2956 1122 2956 1747 
Q 2956 2369 2687 2733 
Q 2419 3097 1959 3097 
z
M 1959 3584 
Q 2709 3584 3137 3096 
Q 3566 2609 3566 1747 
Q 3566 888 3137 398 
Q 2709 -91 1959 -91 
Q 1206 -91 779 398 
Q 353 888 353 1747 
Q 353 2609 779 3096 
Q 1206 3584 1959 3584 
z
" transform="scale(0.015625)"/>
      <path id="DejaVuSans-20" transform="scale(0.015625)"/>
      <path id="DejaVuSans-66" d="M 2375 4863 
L 2375 4384 
L 1825 4384 
Q 1516 4384 1395 4259 
Q 1275 4134 1275 3809 
L 1275 3500 
L 2222 3500 
L 2222 3053 
L 1275 3053 
L 1275 0 
L 697 0 
L 697 3053 
L 147 3053 
L 147 3500 
L 697 3500 
L 697 3744 
Q 697 4328 969 4595 
Q 1241 4863 1831 4863 
L 2375 4863 
z
" transform="scale(0.015625)"/>
     </defs>
     <use xlink:href="#DejaVuSans-49"/>
     <use xlink:href="#DejaVuSans-6e" x="29.492188"/>
     <use xlink:href="#DejaVuSans-74" x="92.871094"/>
     <use xlink:href="#DejaVuSans-65" x="132.080078"/>
     <use xlink:href="#DejaVuSans-72" x="193.603516"/>
     <use xlink:href="#DejaVuSans-73" x="234.716797"/>
     <use xlink:href="#DejaVuSans-65" x="286.816406"/>
     <use xlink:href="#DejaVuSans-63" x="348.339844"/>
     <use xlink:href="#DejaVuSans-74" x="403.320312"/>
     <use xlink:href="#DejaVuSans-69" x="442.529297"/>
     <use xlink:href="#DejaVuSans-6f" x="470.3125"/>
     <use xlink:href="#DejaVuSans-6e" x="531.494141"/>
     <use xlink:href="#DejaVuSans-20" x="594.873047"/>
     <use xlink:href="#DejaVuSans-6f" x="626.660156"/>
     <use xlink:href="#DejaVuSans-66" x="687.841797"/>
     <use xlink:href="#DejaVuSans-20" x="723.046875"/>
    </g>
    <!--  f0 and f1 -->
    <g transform="translate(502.201602 279.603228) scale(0.1 -0.1)">
     <defs>
      <path id="DejaVuSans-61" d="M 2194 1759 
Q 1497 1759 1228 1600 
Q 959 1441 959 1056 
Q 959 750 1161 570 
Q 1363 391 1709 391 
Q 2188 391 2477 730 
Q 2766 1069 2766 1631 
L 2766 1759 
L 2194 1759 
z
M 3341 1997 
L 3341 0 
L 2766 0 
L 2766 531 
Q 2569 213 2275 61 
Q 1981 -91 1556 -91 
Q 1019 -91 701 211 
Q 384 513 384 1019 
Q 384 1609 779 1909 
Q 1175 2209 1959 2209 
L 2766 2209 
L 2766 2266 
Q 2766 2663 2505 2880 
Q 2244 3097 1772 3097 
Q 1472 3097 1187 3025 
Q 903 2953 641 2809 
L 641 3341 
Q 956 3463 1253 3523 
Q 1550 3584 1831 3584 
Q 2591 3584 2966 3190 
Q 3341 2797 3341 1997 
z
" transform="scale(0.015625)"/>
      <path id="DejaVuSans-64" d="M 2906 2969 
L 2906 4863 
L 3481 4863 
L 3481 0 
L 2906 0 
L 2906 525 
Q 2725 213 2448 61 
Q 2172 -91 1784 -91 
Q 1150 -91 751 415 
Q 353 922 353 1747 
Q 353 2572 751 3078 
Q 1150 3584 1784 3584 
Q 2172 3584 2448 3432 
Q 2725 3281 2906 2969 
z
M 947 1747 
Q 947 1113 1208 752 
Q 1469 391 1925 391 
Q 2381 391 2643 752 
Q 2906 1113 2906 1747 
Q 2906 2381 2643 2742 
Q 2381 3103 1925 3103 
Q 1469 3103 1208 2742 
Q 947 2381 947 1747 
z
" transform="scale(0.015625)"/>
     </defs>
     <use xlink:href="#DejaVuSans-20"/>
     <use xlink:href="#DejaVuSans-66" x="31.787109"/>
     <use xlink:href="#DejaVuSans-30" x="66.992188"/>
     <use xlink:href="#DejaVuSans-20" x="130.615234"/>
     <use xlink:href="#DejaVuSans-61" x="162.402344"/>
     <use xlink:href="#DejaVuSans-6e" x="223.681641"/>
     <use xlink:href="#DejaVuSans-64" x="287.060547"/>
     <use xlink:href="#DejaVuSans-20" x="350.537109"/>
     <use xlink:href="#DejaVuSans-66" x="382.324219"/>
     <use xlink:href="#DejaVuSans-31" x="417.529297"/>
    </g>
   </g>
   <g id="text_18">
    <!-- $ f1: -9.6x1 + 13.8x2 = 72 $ -->
    <g transform="translate(347.15397 415.49945) rotate(-30.320426) scale(0.1 -0.1)">
     <defs>
      <path id="DejaVuSans-39" d="M 703 97 
L 703 672 
Q 941 559 1184 500 
Q 1428 441 1663 441 
Q 2288 441 2617 861 
Q 2947 1281 2994 2138 
Q 2813 1869 2534 1725 
Q 2256 1581 1919 1581 
Q 1219 1581 811 2004 
Q 403 2428 403 3163 
Q 403 3881 828 4315 
Q 1253 4750 1959 4750 
Q 2769 4750 3195 4129 
Q 3622 3509 3622 2328 
Q 3622 1225 3098 567 
Q 2575 -91 1691 -91 
Q 1453 -91 1209 -44 
Q 966 3 703 97 
z
M 1959 2075 
Q 2384 2075 2632 2365 
Q 2881 2656 2881 3163 
Q 2881 3666 2632 3958 
Q 2384 4250 1959 4250 
Q 1534 4250 1286 3958 
Q 1038 3666 1038 3163 
Q 1038 2656 1286 2365 
Q 1534 2075 1959 2075 
z
" transform="scale(0.015625)"/>
      <path id="DejaVuSans-37" d="M 525 4666 
L 3525 4666 
L 3525 4397 
L 1831 0 
L 1172 0 
L 2766 4134 
L 525 4134 
L 525 4666 
z
" transform="scale(0.015625)"/>
     </defs>
     <use xlink:href="#DejaVuSans-Oblique-66" transform="translate(0 0.015625)"/>
     <use xlink:href="#DejaVuSans-31" transform="translate(35.205078 0.015625)"/>
     <use xlink:href="#DejaVuSans-3a" transform="translate(118.310547 0.015625)"/>
     <use xlink:href="#DejaVuSans-2212" transform="translate(190.966797 0.015625)"/>
     <use xlink:href="#DejaVuSans-39" transform="translate(294.238281 0.015625)"/>
     <use xlink:href="#DejaVuSans-2e" transform="translate(357.861328 0.015625)"/>
     <use xlink:href="#DejaVuSans-36" transform="translate(389.648438 0.015625)"/>
     <use xlink:href="#DejaVuSans-Oblique-78" transform="translate(453.271484 0.015625)"/>
     <use xlink:href="#DejaVuSans-31" transform="translate(512.451172 0.015625)"/>
     <use xlink:href="#DejaVuSans-2b" transform="translate(595.556641 0.015625)"/>
     <use xlink:href="#DejaVuSans-31" transform="translate(698.828125 0.015625)"/>
     <use xlink:href="#DejaVuSans-33" transform="translate(762.451172 0.015625)"/>
     <use xlink:href="#DejaVuSans-2e" transform="translate(826.074219 0.015625)"/>
     <use xlink:href="#DejaVuSans-38" transform="translate(855.236328 0.015625)"/>
     <use xlink:href="#DejaVuSans-Oblique-78" transform="translate(918.859375 0.015625)"/>
     <use xlink:href="#DejaVuSans-32" transform="translate(978.039062 0.015625)"/>
     <use xlink:href="#DejaVuSans-3d" transform="translate(1061.144531 0.015625)"/>
     <use xlink:href="#DejaVuSans-37" transform="translate(1164.416016 0.015625)"/>
     <use xlink:href="#DejaVuSans-32" transform="translate(1228.039062 0.015625)"/>
    </g>
   </g>
   <g id="patch_8">
    <path d="M 183.324397 489.120783 
Q 188.031852 502.259677 192.362206 514.346053 
" style="fill: none; stroke: #000000; stroke-linecap: round"/>
    <path d="M 192.895852 509.905871 
L 192.362206 514.346053 
L 189.130248 511.255026 
" style="fill: none; stroke: #000000; stroke-linecap: round"/>
   </g>
   <g id="text_19">
    <!-- Intersection of  -->
    <g transform="translate(140.453355 471.964013) scale(0.1 -0.1)">
     <use xlink:href="#DejaVuSans-49"/>
     <use xlink:href="#DejaVuSans-6e" x="29.492188"/>
     <use xlink:href="#DejaVuSans-74" x="92.871094"/>
     <use xlink:href="#DejaVuSans-65" x="132.080078"/>
     <use xlink:href="#DejaVuSans-72" x="193.603516"/>
     <use xlink:href="#DejaVuSans-73" x="234.716797"/>
     <use xlink:href="#DejaVuSans-65" x="286.816406"/>
     <use xlink:href="#DejaVuSans-63" x="348.339844"/>
     <use xlink:href="#DejaVuSans-74" x="403.320312"/>
     <use xlink:href="#DejaVuSans-69" x="442.529297"/>
     <use xlink:href="#DejaVuSans-6f" x="470.3125"/>
     <use xlink:href="#DejaVuSans-6e" x="531.494141"/>
     <use xlink:href="#DejaVuSans-20" x="594.873047"/>
     <use xlink:href="#DejaVuSans-6f" x="626.660156"/>
     <use xlink:href="#DejaVuSans-66" x="687.841797"/>
     <use xlink:href="#DejaVuSans-20" x="723.046875"/>
    </g>
    <!--  f1 and f2 -->
    <g transform="translate(154.13773 483.161825) scale(0.1 -0.1)">
     <use xlink:href="#DejaVuSans-20"/>
     <use xlink:href="#DejaVuSans-66" x="31.787109"/>
     <use xlink:href="#DejaVuSans-31" x="66.992188"/>
     <use xlink:href="#DejaVuSans-20" x="130.615234"/>
     <use xlink:href="#DejaVuSans-61" x="162.402344"/>
     <use xlink:href="#DejaVuSans-6e" x="223.681641"/>
     <use xlink:href="#DejaVuSans-64" x="287.060547"/>
     <use xlink:href="#DejaVuSans-20" x="350.537109"/>
     <use xlink:href="#DejaVuSans-66" x="382.324219"/>
     <use xlink:href="#DejaVuSans-32" x="417.529297"/>
    </g>
   </g>
   <g id="text_20">
    <!-- $ f2: -13.2x1 + 5.7x2 = 305 $ -->
    <g transform="translate(260.536537 347.093887) rotate(-62.812954) scale(0.1 -0.1)">
     <defs>
      <path id="DejaVuSans-35" d="M 691 4666 
L 3169 4666 
L 3169 4134 
L 1269 4134 
L 1269 2991 
Q 1406 3038 1543 3061 
Q 1681 3084 1819 3084 
Q 2600 3084 3056 2656 
Q 3513 2228 3513 1497 
Q 3513 744 3044 326 
Q 2575 -91 1722 -91 
Q 1428 -91 1123 -41 
Q 819 9 494 109 
L 494 744 
Q 775 591 1075 516 
Q 1375 441 1709 441 
Q 2250 441 2565 725 
Q 2881 1009 2881 1497 
Q 2881 1984 2565 2268 
Q 2250 2553 1709 2553 
Q 1456 2553 1204 2497 
Q 953 2441 691 2322 
L 691 4666 
z
" transform="scale(0.015625)"/>
     </defs>
     <use xlink:href="#DejaVuSans-Oblique-66" transform="translate(0 0.015625)"/>
     <use xlink:href="#DejaVuSans-32" transform="translate(35.205078 0.015625)"/>
     <use xlink:href="#DejaVuSans-3a" transform="translate(118.310547 0.015625)"/>
     <use xlink:href="#DejaVuSans-2212" transform="translate(190.966797 0.015625)"/>
     <use xlink:href="#DejaVuSans-31" transform="translate(294.238281 0.015625)"/>
     <use xlink:href="#DejaVuSans-33" transform="translate(357.861328 0.015625)"/>
     <use xlink:href="#DejaVuSans-2e" transform="translate(421.484375 0.015625)"/>
     <use xlink:href="#DejaVuSans-32" transform="translate(447.771484 0.015625)"/>
     <use xlink:href="#DejaVuSans-Oblique-78" transform="translate(511.394531 0.015625)"/>
     <use xlink:href="#DejaVuSans-31" transform="translate(570.574219 0.015625)"/>
     <use xlink:href="#DejaVuSans-2b" transform="translate(653.679688 0.015625)"/>
     <use xlink:href="#DejaVuSans-35" transform="translate(756.951172 0.015625)"/>
     <use xlink:href="#DejaVuSans-2e" transform="translate(820.574219 0.015625)"/>
     <use xlink:href="#DejaVuSans-37" transform="translate(844.611328 0.015625)"/>
     <use xlink:href="#DejaVuSans-Oblique-78" transform="translate(908.234375 0.015625)"/>
     <use xlink:href="#DejaVuSans-32" transform="translate(967.414062 0.015625)"/>
     <use xlink:href="#DejaVuSans-3d" transform="translate(1050.519531 0.015625)"/>
     <use xlink:href="#DejaVuSans-33" transform="translate(1153.791016 0.015625)"/>
     <use xlink:href="#DejaVuSans-30" transform="translate(1217.414062 0.015625)"/>
     <use xlink:href="#DejaVuSans-35" transform="translate(1281.037109 0.015625)"/>
    </g>
   </g>
   <g id="patch_9">
    <path d="M 358.153404 148.751061 
Q 362.860858 161.889956 367.191212 173.976331 
" style="fill: none; stroke: #000000; stroke-linecap: round"/>
    <path d="M 367.724859 169.536149 
L 367.191212 173.976331 
L 363.959254 170.885304 
" style="fill: none; stroke: #000000; stroke-linecap: round"/>
   </g>
   <g id="text_21">
    <!-- Intersection of  -->
    <g transform="translate(315.282361 131.594291) scale(0.1 -0.1)">
     <use xlink:href="#DejaVuSans-49"/>
     <use xlink:href="#DejaVuSans-6e" x="29.492188"/>
     <use xlink:href="#DejaVuSans-74" x="92.871094"/>
     <use xlink:href="#DejaVuSans-65" x="132.080078"/>
     <use xlink:href="#DejaVuSans-72" x="193.603516"/>
     <use xlink:href="#DejaVuSans-73" x="234.716797"/>
     <use xlink:href="#DejaVuSans-65" x="286.816406"/>
     <use xlink:href="#DejaVuSans-63" x="348.339844"/>
     <use xlink:href="#DejaVuSans-74" x="403.320312"/>
     <use xlink:href="#DejaVuSans-69" x="442.529297"/>
     <use xlink:href="#DejaVuSans-6f" x="470.3125"/>
     <use xlink:href="#DejaVuSans-6e" x="531.494141"/>
     <use xlink:href="#DejaVuSans-20" x="594.873047"/>
     <use xlink:href="#DejaVuSans-6f" x="626.660156"/>
     <use xlink:href="#DejaVuSans-66" x="687.841797"/>
     <use xlink:href="#DejaVuSans-20" x="723.046875"/>
    </g>
    <!--  f2 and f0 -->
    <g transform="translate(328.966736 142.792103) scale(0.1 -0.1)">
     <use xlink:href="#DejaVuSans-20"/>
     <use xlink:href="#DejaVuSans-66" x="31.787109"/>
     <use xlink:href="#DejaVuSans-32" x="66.992188"/>
     <use xlink:href="#DejaVuSans-20" x="130.615234"/>
     <use xlink:href="#DejaVuSans-61" x="162.402344"/>
     <use xlink:href="#DejaVuSans-6e" x="223.681641"/>
     <use xlink:href="#DejaVuSans-64" x="287.060547"/>
     <use xlink:href="#DejaVuSans-20" x="350.537109"/>
     <use xlink:href="#DejaVuSans-66" x="382.324219"/>
     <use xlink:href="#DejaVuSans-30" x="417.529297"/>
    </g>
   </g>
   <g id="legend_1">
    <g id="patch_10">
     <path d="M 474.5 138.434375 
L 641 138.434375 
Q 643 138.434375 643 136.434375 
L 643 93.4 
Q 643 91.4 641 91.4 
L 474.5 91.4 
Q 472.5 91.4 472.5 93.4 
L 472.5 136.434375 
Q 472.5 138.434375 474.5 138.434375 
z
" style="fill: #ffffff; opacity: 0.8; stroke: #cccccc; stroke-linejoin: miter"/>
    </g>
    <g id="line2d_33">
     <path d="M 476.5 99.498437 
L 486.5 99.498437 
L 496.5 99.498437 
" style="fill: none; stroke-dasharray: 5.55,2.4; stroke-dashoffset: 0; stroke: #ff0000; stroke-width: 1.5"/>
    </g>
    <g id="text_22">
     <!-- $ f0: 6.2x1 + 6.6x2 = 83 $ -->
     <g transform="translate(504.5 102.998437) scale(0.1 -0.1)">
      <use xlink:href="#DejaVuSans-Oblique-66" transform="translate(0 0.015625)"/>
      <use xlink:href="#DejaVuSans-30" transform="translate(35.205078 0.015625)"/>
      <use xlink:href="#DejaVuSans-3a" transform="translate(118.310547 0.015625)"/>
      <use xlink:href="#DejaVuSans-36" transform="translate(171.484375 0.015625)"/>
      <use xlink:href="#DejaVuSans-2e" transform="translate(235.107422 0.015625)"/>
      <use xlink:href="#DejaVuSans-32" transform="translate(261.394531 0.015625)"/>
      <use xlink:href="#DejaVuSans-Oblique-78" transform="translate(325.017578 0.015625)"/>
      <use xlink:href="#DejaVuSans-31" transform="translate(384.197266 0.015625)"/>
      <use xlink:href="#DejaVuSans-2b" transform="translate(467.302734 0.015625)"/>
      <use xlink:href="#DejaVuSans-36" transform="translate(570.574219 0.015625)"/>
      <use xlink:href="#DejaVuSans-2e" transform="translate(634.197266 0.015625)"/>
      <use xlink:href="#DejaVuSans-36" transform="translate(665.984375 0.015625)"/>
      <use xlink:href="#DejaVuSans-Oblique-78" transform="translate(729.607422 0.015625)"/>
      <use xlink:href="#DejaVuSans-32" transform="translate(788.787109 0.015625)"/>
      <use xlink:href="#DejaVuSans-3d" transform="translate(871.892578 0.015625)"/>
      <use xlink:href="#DejaVuSans-38" transform="translate(975.164062 0.015625)"/>
      <use xlink:href="#DejaVuSans-33" transform="translate(1038.787109 0.015625)"/>
     </g>
    </g>
    <g id="line2d_34">
     <path d="M 476.5 114.176562 
L 486.5 114.176562 
L 496.5 114.176562 
" style="fill: none; stroke-dasharray: 1.5,2.475; stroke-dashoffset: 0; stroke: #008000; stroke-width: 1.5"/>
    </g>
    <g id="text_23">
     <!-- $ f1: -9.6x1 + 13.8x2 = 72 $ -->
     <g transform="translate(504.5 117.676562) scale(0.1 -0.1)">
      <use xlink:href="#DejaVuSans-Oblique-66" transform="translate(0 0.015625)"/>
      <use xlink:href="#DejaVuSans-31" transform="translate(35.205078 0.015625)"/>
      <use xlink:href="#DejaVuSans-3a" transform="translate(118.310547 0.015625)"/>
      <use xlink:href="#DejaVuSans-2212" transform="translate(190.966797 0.015625)"/>
      <use xlink:href="#DejaVuSans-39" transform="translate(294.238281 0.015625)"/>
      <use xlink:href="#DejaVuSans-2e" transform="translate(357.861328 0.015625)"/>
      <use xlink:href="#DejaVuSans-36" transform="translate(389.648438 0.015625)"/>
      <use xlink:href="#DejaVuSans-Oblique-78" transform="translate(453.271484 0.015625)"/>
      <use xlink:href="#DejaVuSans-31" transform="translate(512.451172 0.015625)"/>
      <use xlink:href="#DejaVuSans-2b" transform="translate(595.556641 0.015625)"/>
      <use xlink:href="#DejaVuSans-31" transform="translate(698.828125 0.015625)"/>
      <use xlink:href="#DejaVuSans-33" transform="translate(762.451172 0.015625)"/>
      <use xlink:href="#DejaVuSans-2e" transform="translate(826.074219 0.015625)"/>
      <use xlink:href="#DejaVuSans-38" transform="translate(855.236328 0.015625)"/>
      <use xlink:href="#DejaVuSans-Oblique-78" transform="translate(918.859375 0.015625)"/>
      <use xlink:href="#DejaVuSans-32" transform="translate(978.039062 0.015625)"/>
      <use xlink:href="#DejaVuSans-3d" transform="translate(1061.144531 0.015625)"/>
      <use xlink:href="#DejaVuSans-37" transform="translate(1164.416016 0.015625)"/>
      <use xlink:href="#DejaVuSans-32" transform="translate(1228.039062 0.015625)"/>
     </g>
    </g>
    <g id="line2d_35">
     <path d="M 476.5 128.854687 
L 486.5 128.854687 
L 496.5 128.854687 
" style="fill: none; stroke-dasharray: 9.6,2.4,1.5,2.4; stroke-dashoffset: 0; stroke: #bf00bf; stroke-width: 1.5"/>
    </g>
    <g id="text_24">
     <!-- $ f2: -13.2x1 + 5.7x2 = 305 $ -->
     <g transform="translate(504.5 132.354687) scale(0.1 -0.1)">
      <use xlink:href="#DejaVuSans-Oblique-66" transform="translate(0 0.015625)"/>
      <use xlink:href="#DejaVuSans-32" transform="translate(35.205078 0.015625)"/>
      <use xlink:href="#DejaVuSans-3a" transform="translate(118.310547 0.015625)"/>
      <use xlink:href="#DejaVuSans-2212" transform="translate(190.966797 0.015625)"/>
      <use xlink:href="#DejaVuSans-31" transform="translate(294.238281 0.015625)"/>
      <use xlink:href="#DejaVuSans-33" transform="translate(357.861328 0.015625)"/>
      <use xlink:href="#DejaVuSans-2e" transform="translate(421.484375 0.015625)"/>
      <use xlink:href="#DejaVuSans-32" transform="translate(447.771484 0.015625)"/>
      <use xlink:href="#DejaVuSans-Oblique-78" transform="translate(511.394531 0.015625)"/>
      <use xlink:href="#DejaVuSans-31" transform="translate(570.574219 0.015625)"/>
      <use xlink:href="#DejaVuSans-2b" transform="translate(653.679688 0.015625)"/>
      <use xlink:href="#DejaVuSans-35" transform="translate(756.951172 0.015625)"/>
      <use xlink:href="#DejaVuSans-2e" transform="translate(820.574219 0.015625)"/>
      <use xlink:href="#DejaVuSans-37" transform="translate(844.611328 0.015625)"/>
      <use xlink:href="#DejaVuSans-Oblique-78" transform="translate(908.234375 0.015625)"/>
      <use xlink:href="#DejaVuSans-32" transform="translate(967.414062 0.015625)"/>
      <use xlink:href="#DejaVuSans-3d" transform="translate(1050.519531 0.015625)"/>
      <use xlink:href="#DejaVuSans-33" transform="translate(1153.791016 0.015625)"/>
      <use xlink:href="#DejaVuSans-30" transform="translate(1217.414062 0.015625)"/>
      <use xlink:href="#DejaVuSans-35" transform="translate(1281.037109 0.015625)"/>
     </g>
    </g>
   </g>
  </g>
 </g>
 <defs>
  <clipPath id="pe7c33990cf">
   <rect x="90" y="86.4" width="558" height="554.4"/>
  </clipPath>
 </defs>
</svg>
